Neuton-SC-Extrabold.ufo
<glyph name="exclam" format="1">
  <advance width="518"/>
  <unicode hex="0021"/>
  <outline>
    <contour>
      <point x="47" y="127" type="curve" smooth="yes"/>
      <point x="47" y="192"/>
      <point x="93" y="280"/>
      <point x="256" y="280" type="curve" smooth="yes"/>
      <point x="429" y="280"/>
      <point x="474" y="194"/>
      <point x="474" y="130" type="curve" smooth="yes"/>
      <point x="474" y="45"/>
      <point x="423" y="-26"/>
      <point x="255" y="-26" type="curve" smooth="yes"/>
      <point x="81" y="-26"/>
      <point x="47" y="54"/>
    </contour>
    <contour>
      <point x="66" y="1194" type="curve" smooth="yes"/>
      <point x="66" y="1260"/>
      <point x="117" y="1306"/>
      <point x="272" y="1306" type="curve" smooth="yes"/>
      <point x="376" y="1306"/>
      <point x="426" y="1287"/>
      <point x="426" y="1215" type="curve" smooth="yes"/>
      <point x="426" y="978"/>
      <point x="382" y="597"/>
      <point x="347" y="362" type="curve"/>
      <point x="180" y="391" type="line"/>
      <point x="135" y="628"/>
      <point x="66" y="1094"/>
    </contour>
  </outline>
</glyph>
<glyph name="quotedbl" format="1">
  <advance width="744"/>
  <unicode hex="0022"/>
  <outline>
    <contour>
      <point x="100" y="1302" type="line"/>
      <point x="411" y="1278" type="line"/>
      <point x="350" y="920" type="line"/>
      <point x="175" y="894" type="line"/>
    </contour>
    <contour>
      <point x="430" y="1302" type="line"/>
      <point x="741" y="1278" type="line"/>
      <point x="680" y="920" type="line"/>
      <point x="505" y="894" type="line"/>
    </contour>
  </outline>
</glyph>
<glyph name="dollar" format="1">
  <advance width="844"/>
  <unicode hex="0024"/>
  <outline>
    <contour>
      <point x="31" y="167" type="curve" smooth="yes"/>
      <point x="31" y="264"/>
      <point x="103" y="318"/>
      <point x="223" y="328" type="curve"/>
      <point x="261" y="194"/>
      <point x="329" y="124"/>
      <point x="406" y="124" type="curve" smooth="yes"/>
      <point x="484" y="124"/>
      <point x="515" y="137"/>
      <point x="515" y="186" type="curve" smooth="yes"/>
      <point x="515" y="300"/>
      <point x="65" y="336"/>
      <point x="65" y="634" type="curve" smooth="yes"/>
      <point x="65" y="746"/>
      <point x="157" y="948"/>
      <point x="462" y="948" type="curve" smooth="yes"/>
      <point x="662" y="948"/>
      <point x="795" y="885"/>
      <point x="795" y="773" type="curve" smooth="yes"/>
      <point x="795" y="684"/>
      <point x="702" y="621"/>
      <point x="604" y="611" type="curve"/>
      <point x="573" y="738"/>
      <point x="518.372" y="799"/>
      <point x="419" y="799" type="curve" smooth="yes"/>
      <point x="365" y="799"/>
      <point x="334" y="770"/>
      <point x="334" y="732" type="curve" smooth="yes"/>
      <point x="334" y="612"/>
      <point x="810" y="576"/>
      <point x="810" y="272" type="curve" smooth="yes"/>
      <point x="810" y="71"/>
      <point x="625" y="-36"/>
      <point x="379" y="-36" type="curve" smooth="yes"/>
      <point x="214" y="-36"/>
      <point x="31" y="42"/>
    </contour>
    <contour>
      <point x="342" y="-196" type="line"/>
      <point x="367" y="-15" type="line"/>
      <point x="505" y="-6" type="line"/>
      <point x="529" y="-178" type="line"/>
    </contour>
    <contour>
      <point x="344" y="1068" type="line"/>
      <point x="534" y="1085" type="line"/>
      <point x="505" y="907" type="line"/>
      <point x="373" y="907" type="line"/>
    </contour>
  </outline>
</glyph>
<glyph name="parenleft" format="1">
  <advance width="569"/>
  <unicode hex="0028"/>
  <outline>
    <contour>
      <point x="491" y="-278" type="line"/>
      <point x="401" y="-144"/>
      <point x="326" y="40"/>
      <point x="326" y="454" type="curve" smooth="yes"/>
      <point x="326" y="877"/>
      <point x="398" y="1018"/>
      <point x="485" y="1130" type="curve"/>
      <point x="355" y="1255" type="line"/>
      <point x="291" y="1201"/>
      <point x="17" y="949"/>
      <point x="17" y="426" type="curve" smooth="yes"/>
      <point x="17" y="-88"/>
      <point x="312" y="-328"/>
      <point x="360" y="-376" type="curve"/>
    </contour>
  </outline>
</glyph>
<glyph name="parenright" format="1">
  <advance width="568"/>
  <unicode hex="0029"/>
  <outline>
    <contour>
      <point x="39" y="-278" type="line"/>
      <point x="129" y="-144"/>
      <point x="204" y="40"/>
      <point x="204" y="454" type="curve" smooth="yes"/>
      <point x="204" y="877"/>
      <point x="132" y="1018"/>
      <point x="45" y="1130" type="curve"/>
      <point x="175" y="1255" type="line"/>
      <point x="239" y="1201"/>
      <point x="513" y="949"/>
      <point x="513" y="426" type="curve" smooth="yes"/>
      <point x="513" y="-88"/>
      <point x="218" y="-328"/>
      <point x="170" y="-376" type="curve"/>
    </contour>
  </outline>
</glyph>
<glyph name="comma" format="1">
  <advance width="564"/>
  <unicode hex="002C"/>
  <outline>
    <contour>
      <point x="61" y="96" type="curve" smooth="yes"/>
      <point x="60" y="216"/>
      <point x="147" y="278"/>
      <point x="263" y="278" type="curve" smooth="yes"/>
      <point x="443" y="278"/>
      <point x="506" y="166"/>
      <point x="506" y="12" type="curve" smooth="yes"/>
      <point x="506" y="-152"/>
      <point x="386" y="-338"/>
      <point x="112" y="-377" type="curve"/>
      <point x="68" y="-259" type="line"/>
      <point x="184" y="-221"/>
      <point x="233" y="-142"/>
      <point x="233" y="-80" type="curve" smooth="yes"/>
      <point x="233" y="-23"/>
      <point x="194" y="10"/>
      <point x="146" y="10" type="curve" smooth="yes"/>
      <point x="129" y="10"/>
      <point x="110" y="6"/>
      <point x="92" y="-3" type="curve"/>
      <point x="71" y="32"/>
      <point x="61" y="60"/>
    </contour>
  </outline>
</glyph>
<glyph name="period" format="1">
  <advance width="546"/>
  <unicode hex="002E"/>
  <outline>
    <contour>
      <point x="60" y="127" type="curve" smooth="yes"/>
      <point x="60" y="192"/>
      <point x="106" y="280"/>
      <point x="269" y="280" type="curve" smooth="yes"/>
      <point x="442" y="280"/>
      <point x="487" y="194"/>
      <point x="487" y="130" type="curve" smooth="yes"/>
      <point x="487" y="45"/>
      <point x="436" y="-26"/>
      <point x="268" y="-26" type="curve" smooth="yes"/>
      <point x="94" y="-26"/>
      <point x="60" y="54"/>
    </contour>
  </outline>
</glyph>
<glyph name="slash" format="1">
  <advance width="768"/>
  <unicode hex="002F"/>
  <outline>
    <contour>
      <point x="37" y="-372" type="line"/>
      <point x="499" y="1224" type="line"/>
      <point x="729" y="1244" type="line"/>
      <point x="263" y="-358" type="line"/>
    </contour>
  </outline>
</glyph>
<glyph name="zero" format="1">
  <advance width="896"/>
  <unicode hex="0030"/>
  <outline>
    <contour>
      <point x="54" y="508" type="curve" smooth="yes"/>
      <point x="54" y="823"/>
      <point x="282" y="1023"/>
      <point x="459" y="1023" type="curve" smooth="yes"/>
      <point x="684" y="1023"/>
      <point x="841" y="837"/>
      <point x="841" y="530" type="curve" smooth="yes"/>
      <point x="841" y="135"/>
      <point x="616" y="-20"/>
      <point x="448" y="-20" type="curve" smooth="yes"/>
      <point x="295" y="-20"/>
      <point x="54" y="76"/>
    </contour>
    <contour>
      <point x="393" y="544" type="curve" smooth="yes"/>
      <point x="393" y="186"/>
      <point x="400" y="153"/>
      <point x="448" y="153" type="curve" smooth="yes"/>
      <point x="492" y="153"/>
      <point x="511" y="186"/>
      <point x="511" y="523" type="curve" smooth="yes"/>
      <point x="511" y="840"/>
      <point x="488" y="874"/>
      <point x="454" y="874" type="curve" smooth="yes"/>
      <point x="410" y="874"/>
      <point x="393" y="842"/>
    </contour>
  </outline>
</glyph>
<glyph name="one" format="1">
  <advance width="890"/>
  <unicode hex="0031"/>
  <outline>
    <contour>
      <point x="45" y="-5" type="line"/>
      <point x="62" y="124" type="line"/>
      <point x="266" y="191" type="line"/>
      <point x="266" y="745" type="line"/>
      <point x="70" y="745" type="line"/>
      <point x="82" y="912" type="line"/>
      <point x="538" y="1016" type="line"/>
      <point x="629" y="1016" type="line"/>
      <point x="629" y="178" type="line"/>
      <point x="846" y="132" type="line"/>
      <point x="833" y="-5" type="line"/>
    </contour>
  </outline>
</glyph>
<glyph name="three" format="1">
  <advance width="947"/>
  <unicode hex="0033"/>
  <outline>
    <contour>
      <point x="30" y="-99" type="curve" smooth="yes"/>
      <point x="30" y="-40"/>
      <point x="67" y="45"/>
      <point x="202" y="70" type="curve"/>
      <point x="234" y="-22"/>
      <point x="312" y="-159"/>
      <point x="420" y="-159" type="curve" smooth="yes"/>
      <point x="512" y="-159"/>
      <point x="568" y="-113"/>
      <point x="568" y="-10" type="curve" smooth="yes"/>
      <point x="568" y="116"/>
      <point x="469" y="265"/>
      <point x="279" y="243" type="curve"/>
      <point x="253" y="362" type="line"/>
      <point x="455" y="422"/>
      <point x="533" y="535"/>
      <point x="533" y="637" type="curve" smooth="yes"/>
      <point x="533" y="709"/>
      <point x="476" y="766"/>
      <point x="388" y="766" type="curve" smooth="yes"/>
      <point x="295" y="766"/>
      <point x="207" y="707"/>
      <point x="156" y="584" type="curve"/>
      <point x="54" y="670" type="line"/>
      <point x="131" y="888"/>
      <point x="348" y="983"/>
      <point x="503" y="983" type="curve" smooth="yes"/>
      <point x="697" y="983"/>
      <point x="864" y="891"/>
      <point x="864" y="695" type="curve" smooth="yes"/>
      <point x="864" y="572"/>
      <point x="757" y="447"/>
      <point x="594" y="415" type="curve"/>
      <point x="594" y="391" type="line"/>
      <point x="837" y="374"/>
      <point x="900" y="217"/>
      <point x="900" y="85" type="curve" smooth="yes"/>
      <point x="900" y="-133"/>
      <point x="645" y="-308"/>
      <point x="356" y="-308" type="curve" smooth="yes"/>
      <point x="151" y="-308"/>
      <point x="30" y="-207"/>
    </contour>
  </outline>
</glyph>
<glyph name="four" format="1">
  <advance width="1187"/>
  <unicode hex="0034"/>
  <outline>
    <contour>
      <point x="45" y="181" type="line"/>
      <point x="743" y="1022" type="line"/>
      <point x="899" y="988" type="line"/>
      <point x="893" y="868"/>
      <point x="890" y="527"/>
      <point x="890" y="346" type="curve" smooth="yes"/>
      <point x="890" y="185" type="line"/>
      <point x="1142" y="185" type="line"/>
      <point x="1122" y="8" type="line"/>
      <point x="895" y="8" type="line"/>
      <point x="895" y="-279" type="line"/>
      <point x="552" y="-324" type="line"/>
      <point x="552" y="13" type="line"/>
      <point x="84" y="13" type="line"/>
    </contour>
    <contour>
      <point x="328" y="185" type="line"/>
      <point x="556" y="185" type="line"/>
      <point x="556" y="567" type="line"/>
    </contour>
  </outline>
</glyph>
<glyph name="nine" format="1">
  <advance width="1014"/>
  <unicode hex="0039"/>
  <outline>
    <contour>
      <point x="51" y="499" type="curve" smooth="yes"/>
      <point x="51" y="848"/>
      <point x="268" y="1027"/>
      <point x="508" y="1027" type="curve" smooth="yes"/>
      <point x="832" y="1027"/>
      <point x="959" y="797"/>
      <point x="959" y="492" type="curve" smooth="yes"/>
      <point x="959" y="19"/>
      <point x="629" y="-281"/>
      <point x="219" y="-314" type="curve"/>
      <point x="170" y="-199" type="line"/>
      <point x="355" y="-136"/>
      <point x="536" y="1"/>
      <point x="564" y="208" type="curve"/>
      <point x="556" y="217" type="line"/>
      <point x="524" y="165"/>
      <point x="442" y="135"/>
      <point x="358" y="135" type="curve" smooth="yes"/>
      <point x="159" y="135"/>
      <point x="51" y="291"/>
    </contour>
    <contour>
      <point x="411" y="607" type="curve" smooth="yes"/>
      <point x="411" y="416"/>
      <point x="437" y="324"/>
      <point x="507" y="324" type="curve" smooth="yes"/>
      <point x="525" y="324"/>
      <point x="550" y="331"/>
      <point x="576" y="360" type="curve"/>
      <point x="584" y="403"/>
      <point x="588" y="501"/>
      <point x="588" y="569" type="curve" smooth="yes"/>
      <point x="588" y="774"/>
      <point x="554" y="876"/>
      <point x="491" y="876" type="curve" smooth="yes"/>
      <point x="432" y="875"/>
      <point x="411" y="798"/>
    </contour>
  </outline>
</glyph>
<glyph name="colon" format="1">
  <advance width="503"/>
  <unicode hex="003A"/>
  <outline>
    <contour>
      <point x="114" y="143.65" type="curve" smooth="yes"/>
      <point x="114" y="205.4"/>
      <point x="155.4" y="289"/>
      <point x="302.1" y="289" type="curve" smooth="yes"/>
      <point x="457.8" y="289"/>
      <point x="498.3" y="207.3"/>
      <point x="498.3" y="146.5" type="curve" smooth="yes"/>
      <point x="498.3" y="65.75"/>
      <point x="452.4" y="-1.7002"/>
      <point x="301.2" y="-1.7002" type="curve" smooth="yes"/>
      <point x="144.6" y="-1.7002"/>
      <point x="114" y="74.2998"/>
    </contour>
    <contour>
      <point x="114" y="758.65" type="curve" smooth="yes"/>
      <point x="114" y="820.4"/>
      <point x="155.4" y="904"/>
      <point x="302.1" y="904" type="curve" smooth="yes"/>
      <point x="457.8" y="904"/>
      <point x="498.3" y="822.3"/>
      <point x="498.3" y="761.5" type="curve" smooth="yes"/>
      <point x="498.3" y="680.75"/>
      <point x="452.4" y="613.3"/>
      <point x="301.2" y="613.3" type="curve" smooth="yes"/>
      <point x="144.6" y="613.3"/>
      <point x="114" y="689.3"/>
    </contour>
  </outline>
</glyph>
<glyph name="semicolon" format="1">
  <advance width="532"/>
  <unicode hex="003B"/>
  <outline>
    <contour>
      <point x="121" y="758.65" type="curve" smooth="yes"/>
      <point x="121" y="820.4"/>
      <point x="162.4" y="904"/>
      <point x="309.1" y="904" type="curve" smooth="yes"/>
      <point x="464.8" y="904"/>
      <point x="505.3" y="822.3"/>
      <point x="505.3" y="761.5" type="curve" smooth="yes"/>
      <point x="505.3" y="680.75"/>
      <point x="459.4" y="613.3"/>
      <point x="308.2" y="613.3" type="curve" smooth="yes"/>
      <point x="151.6" y="613.3"/>
      <point x="121" y="689.3"/>
    </contour>
    <contour>
      <point x="114.95" y="81.4004" type="curve" smooth="yes"/>
      <point x="114" y="189.4"/>
      <point x="196.65" y="245.2"/>
      <point x="306.85" y="245.2" type="curve" smooth="yes"/>
      <point x="477.85" y="245.2"/>
      <point x="537.7" y="144.4"/>
      <point x="537.7" y="5.7998" type="curve" smooth="yes"/>
      <point x="537.7" y="-141.8"/>
      <point x="423.7" y="-309.2"/>
      <point x="163.4" y="-344.3" type="curve"/>
      <point x="121.6" y="-238.1" type="line"/>
      <point x="231.8" y="-203.9"/>
      <point x="278.35" y="-132.8"/>
      <point x="278.35" y="-77" type="curve" smooth="yes"/>
      <point x="278.35" y="-25.7002"/>
      <point x="241.3" y="4"/>
      <point x="195.7" y="4" type="curve" smooth="yes"/>
      <point x="179.55" y="4"/>
      <point x="161.5" y="0.400391"/>
      <point x="144.4" y="-7.7002" type="curve"/>
      <point x="124.45" y="23.7998"/>
      <point x="114.95" y="49"/>
    </contour>
  </outline>
</glyph>
<glyph name="less" format="1">
  <advance width="877"/>
  <unicode hex="003C"/>
  <outline>
    <contour>
      <point x="793" y="36" type="line"/>
      <point x="445" y="454" type="line"/>
      <point x="781" y="840" type="line"/>
      <point x="634" y="974" type="line"/>
      <point x="5" y="504" type="line"/>
      <point x="15" y="410" type="line"/>
      <point x="647" y="-84" type="line"/>
    </contour>
  </outline>
</glyph>
<glyph name="greater" format="1">
  <advance width="877"/>
  <unicode hex="003E"/>
  <outline>
    <contour>
      <point x="42" y="36" type="line"/>
      <point x="390" y="454" type="line"/>
      <point x="54" y="840" type="line"/>
      <point x="201" y="974" type="line"/>
      <point x="830" y="504" type="line"/>
      <point x="820" y="410" type="line"/>
      <point x="188" y="-84" type="line"/>
    </contour>
  </outline>
</glyph>
<glyph name="question" format="1">
  <advance width="751"/>
  <unicode hex="003F"/>
  <outline>
    <contour>
      <point x="43" y="1133" type="curve" smooth="yes"/>
      <point x="43" y="1216"/>
      <point x="101" y="1291"/>
      <point x="274" y="1291" type="curve" smooth="yes"/>
      <point x="487" y="1291"/>
      <point x="704" y="1025"/>
      <point x="704" y="806" type="curve" smooth="yes"/>
      <point x="704" y="524"/>
      <point x="416" y="592"/>
      <point x="416" y="439" type="curve" smooth="yes"/>
      <point x="416" y="429"/>
      <point x="426" y="374"/>
      <point x="429" y="362" type="curve"/>
      <point x="259" y="374" type="line"/>
      <point x="192" y="474"/>
      <point x="165" y="584"/>
      <point x="165" y="635" type="curve" smooth="yes"/>
      <point x="165" y="802"/>
      <point x="492" y="792"/>
      <point x="492" y="900" type="curve" smooth="yes"/>
      <point x="492" y="949"/>
      <point x="423" y="975"/>
      <point x="368" y="975" type="curve" smooth="yes"/>
      <point x="288" y="975"/>
      <point x="179" y="943"/>
      <point x="154" y="916" type="curve"/>
      <point x="106" y="942"/>
      <point x="43" y="1037"/>
    </contour>
    <contour>
      <point x="128" y="127" type="curve" smooth="yes"/>
      <point x="128" y="192"/>
      <point x="174" y="280"/>
      <point x="337" y="280" type="curve" smooth="yes"/>
      <point x="510" y="280"/>
      <point x="555" y="194"/>
      <point x="555" y="130" type="curve" smooth="yes"/>
      <point x="555" y="45"/>
      <point x="504" y="-26"/>
      <point x="336" y="-26" type="curve" smooth="yes"/>
      <point x="162" y="-26"/>
      <point x="128" y="54"/>
    </contour>
  </outline>
</glyph>
<glyph name="at" format="1">
  <advance width="1554"/>
  <unicode hex="0040"/>
  <outline>
    <contour>
      <point x="53" y="326" type="curve" smooth="yes"/>
      <point x="53" y="687"/>
      <point x="393" y="1043"/>
      <point x="935" y="1043" type="curve" smooth="yes"/>
      <point x="1213" y="1043"/>
      <point x="1501" y="927"/>
      <point x="1501" y="622" type="curve" smooth="yes"/>
      <point x="1501" y="327"/>
      <point x="1258" y="72"/>
      <point x="985" y="72" type="curve" smooth="yes"/>
      <point x="898" y="72"/>
      <point x="774" y="99"/>
      <point x="777" y="197" type="curve"/>
      <point x="766" y="197" type="line"/>
      <point x="714" y="122"/>
      <point x="645" y="86"/>
      <point x="581" y="86" type="curve" smooth="yes"/>
      <point x="482" y="86"/>
      <point x="394" y="173"/>
      <point x="394" y="342" type="curve" smooth="yes"/>
      <point x="394" y="549"/>
      <point x="554" y="796"/>
      <point x="915" y="796" type="curve" smooth="yes"/>
      <point x="970" y="796"/>
      <point x="1025" y="790"/>
      <point x="1078" y="778" type="curve"/>
      <point x="1094" y="761" type="line"/>
      <point x="1054" y="395" type="line" smooth="yes"/>
      <point x="1040" y="265"/>
      <point x="1045" y="243"/>
      <point x="1088" y="243" type="curve" smooth="yes"/>
      <point x="1210" y="243"/>
      <point x="1261" y="476"/>
      <point x="1261" y="567" type="curve" smooth="yes"/>
      <point x="1261" y="806"/>
      <point x="1101" y="895"/>
      <point x="864" y="894" type="curve" smooth="yes"/>
      <point x="499" y="893"/>
      <point x="301" y="661"/>
      <point x="301" y="377" type="curve" smooth="yes"/>
      <point x="301" y="79"/>
      <point x="465" y="-65"/>
      <point x="836" y="-65" type="curve" smooth="yes"/>
      <point x="969" y="-65"/>
      <point x="1101" y="-54"/>
      <point x="1197" y="26" type="curve"/>
      <point x="1242" y="-84" type="line"/>
      <point x="1127" y="-172"/>
      <point x="947" y="-221"/>
      <point x="762" y="-221" type="curve" smooth="yes"/>
      <point x="315" y="-221"/>
      <point x="53" y="0"/>
    </contour>
    <contour>
      <point x="674" y="395" type="curve" smooth="yes"/>
      <point x="674" y="314"/>
      <point x="698" y="294"/>
      <point x="727" y="294" type="curve" smooth="yes"/>
      <point x="745" y="294"/>
      <point x="765" y="301"/>
      <point x="782" y="306" type="curve"/>
      <point x="826" y="648" type="line"/>
      <point x="821" y="644"/>
      <point x="823" y="659"/>
      <point x="792" y="659" type="curve" smooth="yes"/>
      <point x="694" y="659"/>
      <point x="674" y="442"/>
    </contour>
  </outline>
</glyph>
<glyph name="D" format="1">
  <advance width="1432"/>
  <unicode hex="0044"/>
  <outline>
    <contour>
      <point x="34" y="0" type="line"/>
      <point x="47" y="158" type="line"/>
      <point x="227" y="241" type="line"/>
      <point x="227" y="1003" type="line"/>
      <point x="54" y="1049" type="line"/>
      <point x="61" y="1206" type="line"/>
      <point x="186" y="1231"/>
      <point x="442" y="1258"/>
      <point x="654" y="1258" type="curve" smooth="yes"/>
      <point x="1203" y="1258"/>
      <point x="1395" y="992"/>
      <point x="1395" y="672" type="curve" smooth="yes"/>
      <point x="1395" y="283"/>
      <point x="1114" y="0"/>
      <point x="642" y="0" type="curve" smooth="yes"/>
    </contour>
    <contour>
      <point x="597" y="202" type="line"/>
      <point x="672" y="202" type="line" smooth="yes"/>
      <point x="985" y="202"/>
      <point x="1020" y="459"/>
      <point x="1020" y="598" type="curve" smooth="yes"/>
      <point x="1020" y="793"/>
      <point x="908" y="1057"/>
      <point x="615" y="1057" type="curve" smooth="yes"/>
      <point x="608" y="1057"/>
      <point x="602" y="1057"/>
      <point x="597" y="1056" type="curve"/>
    </contour>
  </outline>
</glyph>
<glyph name="E" format="1">
  <advance width="1306"/>
  <unicode hex="0045"/>
  <outline>
    <contour>
      <point x="34" y="1100" type="line"/>
      <point x="53" y="1244" type="line"/>
      <point x="1226" y="1244" type="line"/>
      <point x="1196" y="826" type="line"/>
      <point x="1025" y="852" type="line"/>
      <point x="942" y="1072" type="line"/>
      <point x="597" y="1072" type="line"/>
      <point x="597" y="712" type="line"/>
      <point x="730" y="723" type="line"/>
      <point x="762" y="725" type="line"/>
      <point x="1016" y="746" type="line"/>
      <point x="983" y="470" type="line"/>
      <point x="742" y="514" type="line"/>
      <point x="710" y="520" type="line"/>
      <point x="597" y="540" type="line"/>
      <point x="597" y="200" type="line"/>
      <point x="960" y="180" type="line"/>
      <point x="1106" y="428" type="line"/>
      <point x="1271" y="411" type="line"/>
      <point x="1241" y="0" type="line"/>
      <point x="50" y="0" type="line"/>
      <point x="60" y="158" type="line"/>
      <point x="224" y="217" type="line"/>
      <point x="224" y="1030" type="line"/>
    </contour>
  </outline>
</glyph>
<glyph name="F" format="1">
  <advance width="1256"/>
  <unicode hex="0046"/>
  <outline>
    <contour>
      <point x="34" y="1100" type="line"/>
      <point x="53" y="1244" type="line"/>
      <point x="1221" y="1244" type="line"/>
      <point x="1162" y="834" type="line"/>
      <point x="995" y="861" type="line"/>
      <point x="935" y="1072" type="line"/>
      <point x="599" y="1072" type="line"/>
      <point x="599" y="686" type="line"/>
      <point x="826" y="709" type="line"/>
      <point x="859" y="712" type="line"/>
      <point x="1018" y="728" type="line"/>
      <point x="985" y="452" type="line"/>
      <point x="832" y="477" type="line"/>
      <point x="790" y="483" type="line"/>
      <point x="599" y="514" type="line"/>
      <point x="599" y="227" type="line"/>
      <point x="834" y="163" type="line"/>
      <point x="818" y="0" type="line"/>
      <point x="49" y="0" type="line"/>
      <point x="65" y="138" type="line"/>
      <point x="227" y="217" type="line"/>
      <point x="227" y="1030" type="line"/>
    </contour>
  </outline>
</glyph>
<glyph name="J" format="1">
  <advance width="820"/>
  <unicode hex="004A"/>
  <outline>
    <contour>
      <point x="34" y="-151" type="line"/>
      <point x="177" y="-36"/>
      <point x="238" y="142"/>
      <point x="238" y="285" type="curve" smooth="yes"/>
      <point x="238" y="1020" type="line"/>
      <point x="53" y="1094" type="line"/>
      <point x="72" y="1244" type="line"/>
      <point x="785" y="1244" type="line"/>
      <point x="765" y="1094" type="line"/>
      <point x="605" y="1027" type="line"/>
      <point x="605" y="434" type="line" smooth="yes"/>
      <point x="608" y="26"/>
      <point x="510" y="-111"/>
      <point x="151" y="-326" type="curve"/>
    </contour>
  </outline>
</glyph>
<glyph name="K" format="1">
  <advance width="1546"/>
  <unicode hex="004B"/>
  <outline>
    <contour>
      <point x="34" y="1094" type="line"/>
      <point x="66" y="1244" type="line"/>
      <point x="786" y="1244" type="line"/>
      <point x="763" y="1074" type="line"/>
      <point x="619" y="1000" type="line"/>
      <point x="619" y="240" type="line"/>
      <point x="814" y="148" type="line"/>
      <point x="802" y="0" type="line"/>
      <point x="37" y="0" type="line"/>
      <point x="53" y="138" type="line"/>
      <point x="255" y="241" type="line"/>
      <point x="255" y="993" type="line"/>
    </contour>
    <contour>
      <point x="650" y="578" type="line"/>
      <point x="654" y="665" type="line"/>
      <point x="671" y="686"/>
      <point x="691" y="712"/>
      <point x="719" y="750" type="curve" smooth="yes"/>
      <point x="904" y="1003" type="line"/>
      <point x="917" y="1082" type="line"/>
      <point x="944" y="1244" type="line"/>
      <point x="1462" y="1244" type="line"/>
      <point x="1432" y="1094" type="line"/>
      <point x="1211" y="1000" type="line"/>
      <point x="958" y="670" type="line"/>
      <point x="1136" y="460" type="line" smooth="yes"/>
      <point x="1277" y="292"/>
      <point x="1373" y="205"/>
      <point x="1486" y="146" type="curve" smooth="yes"/>
      <point x="1511" y="133" type="line"/>
      <point x="1479" y="2" type="line"/>
      <point x="1409" y="-13"/>
      <point x="1345" y="-22"/>
      <point x="1285" y="-22" type="curve" smooth="yes"/>
      <point x="1101" y="-22"/>
      <point x="974" y="57"/>
      <point x="794" y="346" type="curve" smooth="yes"/>
    </contour>
  </outline>
</glyph>
<glyph name="L" format="1">
  <advance width="1228"/>
  <unicode hex="004C"/>
  <outline>
    <contour>
      <point x="34" y="0" type="line"/>
      <point x="50" y="138" type="line"/>
      <point x="210" y="217" type="line"/>
      <point x="210" y="998" type="line"/>
      <point x="38" y="1098" type="line"/>
      <point x="57" y="1245" type="line"/>
      <point x="800" y="1245" type="line"/>
      <point x="779" y="1098" type="line"/>
      <point x="583" y="1000" type="line"/>
      <point x="583" y="200" type="line"/>
      <point x="853" y="178" type="line"/>
      <point x="1027" y="453" type="line"/>
      <point x="1193" y="430" type="line"/>
      <point x="1146" y="0" type="line"/>
    </contour>
  </outline>
</glyph>
<glyph name="M" format="1">
  <advance width="1873"/>
  <unicode hex="004D"/>
  <outline>
    <contour>
      <point x="34" y="0" type="line"/>
      <point x="55" y="154" type="line"/>
      <point x="223" y="233" type="line"/>
      <point x="281" y="1030" type="line"/>
      <point x="97" y="1087" type="line"/>
      <point x="113" y="1244" type="line"/>
      <point x="764" y="1244" type="line"/>
      <point x="821" y="1039" type="line"/>
      <point x="949" y="553" type="line"/>
      <point x="1105" y="1041" type="line"/>
      <point x="1172" y="1244" type="line"/>
      <point x="1792" y="1244" type="line"/>
      <point x="1774" y="1087" type="line"/>
      <point x="1622" y="1033" type="line"/>
      <point x="1672" y="229" type="line"/>
      <point x="1838" y="161" type="line"/>
      <point x="1824" y="0" type="line"/>
      <point x="1163" y="0" type="line"/>
      <point x="1186" y="154" type="line"/>
      <point x="1288" y="223" type="line"/>
      <point x="1265" y="786" type="line"/>
      <point x="1040" y="31" type="line"/>
      <point x="747" y="-8" type="line"/>
      <point x="518" y="787" type="line"/>
      <point x="485" y="229" type="line"/>
      <point x="614" y="161" type="line"/>
      <point x="589" y="0" type="line"/>
    </contour>
  </outline>
</glyph>
<glyph name="N" format="1">
  <advance width="1442"/>
  <unicode hex="004E"/>
  <outline>
    <contour>
      <point x="34" y="0" type="line"/>
      <point x="44" y="138" type="line"/>
      <point x="215" y="217" type="line"/>
      <point x="215" y="1003" type="line"/>
      <point x="38" y="1087" type="line"/>
      <point x="52" y="1244" type="line"/>
      <point x="462" y="1244" type="line"/>
      <point x="1024" y="513" type="line"/>
      <point x="1024" y="1020" type="line"/>
      <point x="836" y="1094" type="line"/>
      <point x="860" y="1244" type="line"/>
      <point x="1407" y="1244" type="line"/>
      <point x="1382" y="1094" type="line"/>
      <point x="1244" y="1027" type="line"/>
      <point x="1244" y="15" type="line"/>
      <point x="951" y="-29" type="line"/>
      <point x="448" y="619" type="line"/>
      <point x="448" y="211" type="line"/>
      <point x="628" y="148" type="line"/>
      <point x="615" y="0" type="line"/>
    </contour>
  </outline>
</glyph>
<glyph name="P" format="1">
  <advance width="1265"/>
  <unicode hex="0050"/>
  <outline>
    <contour>
      <point x="34" y="0" type="line"/>
      <point x="56" y="138" type="line"/>
      <point x="243" y="217" type="line"/>
      <point x="243" y="1008" type="line"/>
      <point x="53" y="1052" type="line"/>
      <point x="66" y="1211" type="line"/>
      <point x="272" y="1244"/>
      <point x="429" y="1267"/>
      <point x="681" y="1267" type="curve" smooth="yes"/>
      <point x="1013" y="1267"/>
      <point x="1229" y="1170"/>
      <point x="1229" y="858" type="curve" smooth="yes"/>
      <point x="1229" y="618"/>
      <point x="1031" y="423"/>
      <point x="732" y="423" type="curve" smooth="yes"/>
      <point x="706" y="423"/>
      <point x="679" y="425"/>
      <point x="651" y="428" type="curve"/>
      <point x="619" y="602" type="line"/>
      <point x="640" y="602" type="line" smooth="yes"/>
      <point x="789" y="602"/>
      <point x="859" y="685"/>
      <point x="859" y="800" type="curve" smooth="yes"/>
      <point x="859" y="938"/>
      <point x="796" y="1054"/>
      <point x="664" y="1054" type="curve" smooth="yes"/>
      <point x="643" y="1054"/>
      <point x="620" y="1051"/>
      <point x="597" y="1047" type="curve"/>
      <point x="597" y="233" type="line"/>
      <point x="848" y="164" type="line"/>
      <point x="824" y="0" type="line"/>
    </contour>
  </outline>
</glyph>
<glyph name="R" format="1">
  <advance width="1485"/>
  <unicode hex="0052"/>
  <outline>
    <contour>
      <point x="34" y="0" type="line"/>
      <point x="53" y="138" type="line"/>
      <point x="243" y="217" type="line"/>
      <point x="243" y="996" type="line"/>
      <point x="51" y="1043" type="line"/>
      <point x="63" y="1203" type="line"/>
      <point x="205" y="1232"/>
      <point x="405" y="1255"/>
      <point x="670" y="1255" type="curve" smooth="yes"/>
      <point x="1058" y="1255"/>
      <point x="1266" y="1167"/>
      <point x="1266" y="908" type="curve" smooth="yes"/>
      <point x="1266" y="729"/>
      <point x="1156" y="623"/>
      <point x="1032" y="572" type="curve"/>
      <point x="1032" y="571" type="line"/>
      <point x="1135" y="420" type="line" smooth="yes"/>
      <point x="1225" y="288"/>
      <point x="1298" y="214"/>
      <point x="1411" y="152" type="curve" smooth="yes"/>
      <point x="1450" y="133" type="line"/>
      <point x="1419" y="2" type="line"/>
      <point x="1381" y="-16"/>
      <point x="1308" y="-27"/>
      <point x="1235" y="-27" type="curve" smooth="yes"/>
      <point x="1041" y="-27"/>
      <point x="876" y="85"/>
      <point x="790" y="388" type="curve" smooth="yes"/>
      <point x="767" y="469" type="line"/>
      <point x="613" y="469" type="line"/>
      <point x="613" y="209" type="line"/>
      <point x="766" y="155" type="line"/>
      <point x="754" y="0" type="line"/>
    </contour>
    <contour>
      <point x="613" y="648" type="line"/>
      <point x="816" y="648" type="line"/>
      <point x="861" y="694"/>
      <point x="885" y="756"/>
      <point x="885" y="860" type="curve" smooth="yes"/>
      <point x="885" y="974"/>
      <point x="792" y="1075"/>
      <point x="646" y="1075" type="curve" smooth="yes"/>
      <point x="635" y="1075"/>
      <point x="624" y="1075"/>
      <point x="613" y="1074" type="curve"/>
    </contour>
  </outline>
</glyph>
<glyph name="S" format="1">
  <advance width="1008"/>
  <unicode hex="0053"/>
  <outline>
    <contour>
      <point x="34" y="66" type="curve"/>
      <point x="68" y="438" type="line"/>
      <point x="245" y="409" type="line"/>
      <point x="287" y="222" type="line"/>
      <point x="326" y="178"/>
      <point x="418" y="156"/>
      <point x="498" y="156" type="curve" smooth="yes"/>
      <point x="586" y="156"/>
      <point x="661" y="213"/>
      <point x="661" y="271" type="curve" smooth="yes"/>
      <point x="661" y="460"/>
      <point x="45" y="460"/>
      <point x="45" y="857" type="curve" smooth="yes"/>
      <point x="45" y="1107"/>
      <point x="259" y="1266"/>
      <point x="532" y="1266" type="curve" smooth="yes"/>
      <point x="642" y="1266"/>
      <point x="844" y="1230"/>
      <point x="896" y="1186" type="curve"/>
      <point x="896" y="1162"/>
      <point x="868" y="824"/>
      <point x="868" y="824" type="curve"/>
      <point x="695" y="854" type="line"/>
      <point x="656" y="1017" type="line"/>
      <point x="620" y="1072"/>
      <point x="531" y="1106"/>
      <point x="460" y="1106" type="curve" smooth="yes"/>
      <point x="371" y="1106"/>
      <point x="325" y="1060"/>
      <point x="325" y="990" type="curve" smooth="yes"/>
      <point x="325" y="814"/>
      <point x="973" y="773"/>
      <point x="973" y="391" type="curve" smooth="yes"/>
      <point x="973" y="70"/>
      <point x="639" y="-23"/>
      <point x="466" y="-23" type="curve" smooth="yes"/>
      <point x="246" y="-23"/>
      <point x="86" y="16"/>
    </contour>
  </outline>
</glyph>
<glyph name="V" format="1">
  <advance width="1539"/>
  <unicode hex="0056"/>
  <outline>
    <contour>
      <point x="34" y="1087" type="line"/>
      <point x="54" y="1244" type="line"/>
      <point x="790" y="1244" type="line"/>
      <point x="767" y="1087" type="line"/>
      <point x="615" y="1027" type="line"/>
      <point x="850" y="391" type="line"/>
      <point x="1078" y="1025" type="line"/>
      <point x="924" y="1087" type="line"/>
      <point x="939" y="1244" type="line"/>
      <point x="1504" y="1244" type="line"/>
      <point x="1489" y="1087" type="line"/>
      <point x="1355" y="1027" type="line"/>
      <point x="931" y="25" type="line"/>
      <point x="578" y="-33" type="line"/>
      <point x="179" y="1025" type="line"/>
    </contour>
  </outline>
</glyph>
<glyph name="W" format="1">
  <advance width="2106"/>
  <unicode hex="0057"/>
  <outline>
    <contour>
      <point x="34" y="1089" type="line"/>
      <point x="45" y="1244" type="line"/>
      <point x="800" y="1244" type="line"/>
      <point x="764" y="1081" type="line"/>
      <point x="611" y="1027" type="line"/>
      <point x="765" y="486" type="line"/>
      <point x="940" y="1200" type="line"/>
      <point x="1279" y="1240" type="line"/>
      <point x="1485" y="502" type="line"/>
      <point x="1638" y="1030" type="line"/>
      <point x="1471" y="1084" type="line"/>
      <point x="1492" y="1244" type="line"/>
      <point x="2071" y="1244" type="line"/>
      <point x="2046" y="1087" type="line"/>
      <point x="1914" y="1033" type="line"/>
      <point x="1579" y="28" type="line"/>
      <point x="1246" y="-33" type="line"/>
      <point x="1039" y="721" type="line"/>
      <point x="861" y="28" type="line"/>
      <point x="515" y="-34" type="line"/>
      <point x="210" y="1023" type="line"/>
    </contour>
  </outline>
</glyph>
<glyph name="bracketleft" format="1">
  <advance width="593"/>
  <unicode hex="005B"/>
  <outline>
    <contour>
      <point x="511" y="-214" type="line"/>
      <point x="265" y="-193" type="line"/>
      <point x="265" y="1075" type="line"/>
      <point x="504" y="1094" type="line"/>
      <point x="474" y="1255" type="line"/>
      <point x="38" y="1255" type="line"/>
      <point x="34" y="-378" type="line"/>
      <point x="483" y="-378" type="line"/>
    </contour>
  </outline>
</glyph>
<glyph name="backslash" format="1">
  <advance width="765"/>
  <unicode hex="005C"/>
  <outline>
    <contour>
      <point x="35" y="1333" type="line"/>
      <point x="270" y="1316" type="line"/>
      <point x="731" y="-410" type="line"/>
      <point x="504" y="-397" type="line"/>
    </contour>
  </outline>
</glyph>
<glyph name="bracketright" format="1">
  <advance width="592"/>
  <unicode hex="005D"/>
  <outline>
    <contour>
      <point x="41" y="-214" type="line"/>
      <point x="287" y="-193" type="line"/>
      <point x="287" y="1075" type="line"/>
      <point x="48" y="1094" type="line"/>
      <point x="78" y="1255" type="line"/>
      <point x="514" y="1255" type="line"/>
      <point x="518" y="-378" type="line"/>
      <point x="69" y="-378" type="line"/>
    </contour>
  </outline>
</glyph>
<glyph name="b" format="1">
  <advance width="1148"/>
  <unicode hex="0062"/>
  <outline>
    <contour>
      <point x="33" y="0" type="line"/>
      <point x="47" y="138" type="line"/>
      <point x="153" y="217" type="line"/>
      <point x="153" y="758" type="line"/>
      <point x="44" y="802" type="line"/>
      <point x="54" y="961" type="line"/>
      <point x="163" y="979"/>
      <point x="349" y="997"/>
      <point x="581" y="997" type="curve" smooth="yes"/>
      <point x="916" y="997"/>
      <point x="1069" y="902"/>
      <point x="1069" y="741" type="curve" smooth="yes"/>
      <point x="1069" y="655"/>
      <point x="985" y="553"/>
      <point x="856" y="535" type="curve"/>
      <point x="856" y="525" type="line"/>
      <point x="971" y="521"/>
      <point x="1115" y="449"/>
      <point x="1115" y="330" type="curve" smooth="yes"/>
      <point x="1115" y="110"/>
      <point x="918" y="0"/>
      <point x="567" y="0" type="curve" smooth="yes"/>
    </contour>
    <contour>
      <point x="525" y="186" type="line"/>
      <point x="597" y="186" type="line" smooth="yes"/>
      <point x="700" y="186"/>
      <point x="756" y="224"/>
      <point x="756" y="298" type="curve" smooth="yes"/>
      <point x="756" y="378"/>
      <point x="695" y="441"/>
      <point x="581" y="441" type="curve" smooth="yes"/>
      <point x="525" y="441" type="line"/>
    </contour>
    <contour>
      <point x="525" y="542" type="line"/>
      <point x="679" y="542" type="line"/>
      <point x="703" y="564"/>
      <point x="724" y="607"/>
      <point x="724" y="647" type="curve" smooth="yes"/>
      <point x="724" y="737"/>
      <point x="690" y="820"/>
      <point x="589" y="820" type="curve" smooth="yes"/>
      <point x="569" y="820"/>
      <point x="547" y="819"/>
      <point x="525" y="815" type="curve"/>
    </contour>
  </outline>
</glyph>
<glyph name="f" format="1">
  <advance width="1083"/>
  <unicode hex="0066"/>
  <outline>
    <contour>
      <point x="33" y="835" type="line"/>
      <point x="52" y="979" type="line"/>
      <point x="1050" y="979" type="line"/>
      <point x="991" y="599" type="line"/>
      <point x="814" y="626" type="line"/>
      <point x="764" y="807" type="line"/>
      <point x="538" y="807" type="line"/>
      <point x="538" y="517" type="line"/>
      <point x="661" y="535" type="line"/>
      <point x="682" y="538" type="line"/>
      <point x="827" y="559" type="line"/>
      <point x="794" y="333" type="line"/>
      <point x="664" y="354" type="line"/>
      <point x="640" y="358" type="line"/>
      <point x="538" y="375" type="line"/>
      <point x="538" y="227" type="line"/>
      <point x="703" y="163" type="line"/>
      <point x="687" y="0" type="line"/>
      <point x="48" y="0" type="line"/>
      <point x="64" y="138" type="line"/>
      <point x="166" y="217" type="line"/>
      <point x="166" y="765" type="line"/>
    </contour>
  </outline>
</glyph>
<glyph name="g" format="1">
  <advance width="1158"/>
  <unicode hex="0067"/>
  <outline>
    <contour>
      <point x="35" y="450" type="curve" smooth="yes"/>
      <point x="35" y="805"/>
      <point x="353" y="997"/>
      <point x="661" y="997" type="curve" smooth="yes"/>
      <point x="872" y="997"/>
      <point x="974" y="976"/>
      <point x="1042" y="961" type="curve"/>
      <point x="1001" y="652" type="line"/>
      <point x="813" y="667" type="line"/>
      <point x="722" y="795" type="line"/>
      <point x="698" y="805"/>
      <point x="668" y="813"/>
      <point x="614" y="813" type="curve" smooth="yes"/>
      <point x="505" y="813"/>
      <point x="440" y="735"/>
      <point x="440" y="534" type="curve" smooth="yes"/>
      <point x="440" y="310"/>
      <point x="516" y="195"/>
      <point x="636" y="195" type="curve" smooth="yes"/>
      <point x="688" y="195"/>
      <point x="722" y="200"/>
      <point x="749" y="225" type="curve"/>
      <point x="749" y="313" type="line"/>
      <point x="588" y="377" type="line"/>
      <point x="605" y="509" type="line"/>
      <point x="1125" y="509" type="line"/>
      <point x="1110" y="363" type="line"/>
      <point x="1045" y="321" type="line"/>
      <point x="1045" y="63" type="line"/>
      <point x="976" y="22"/>
      <point x="766" y="-24"/>
      <point x="640" y="-24" type="curve" smooth="yes"/>
      <point x="237" y="-24"/>
      <point x="35" y="141"/>
    </contour>
  </outline>
</glyph>
<glyph name="i" format="1">
  <advance width="693"/>
  <unicode hex="0069"/>
  <outline>
    <contour>
      <point x="33" y="829" type="line"/>
      <point x="53" y="979" type="line"/>
      <point x="660" y="979" type="line"/>
      <point x="644" y="819" type="line"/>
      <point x="525" y="752" type="line"/>
      <point x="525" y="223" type="line"/>
      <point x="645" y="160" type="line"/>
      <point x="632" y="0" type="line"/>
      <point x="35" y="0" type="line"/>
      <point x="45" y="142" type="line"/>
      <point x="161" y="221" type="line"/>
      <point x="161" y="755" type="line"/>
    </contour>
  </outline>
</glyph>
<glyph name="l" format="1">
  <advance width="1066"/>
  <unicode hex="006C"/>
  <outline>
    <contour>
      <point x="37" y="832" type="line"/>
      <point x="56" y="979" type="line"/>
      <point x="689" y="979" type="line"/>
      <point x="668" y="832" type="line"/>
      <point x="532" y="734" type="line"/>
      <point x="532" y="200" type="line"/>
      <point x="722" y="178" type="line"/>
      <point x="856" y="413" type="line"/>
      <point x="1032" y="390" type="line"/>
      <point x="1015" y="0" type="line"/>
      <point x="33" y="0" type="line"/>
      <point x="49" y="138" type="line"/>
      <point x="159" y="217" type="line"/>
      <point x="159" y="732" type="line"/>
    </contour>
  </outline>
</glyph>
<glyph name="p" format="1">
  <advance width="1116"/>
  <unicode hex="0070"/>
  <outline>
    <contour>
      <point x="33" y="0" type="line"/>
      <point x="55" y="138" type="line"/>
      <point x="192" y="217" type="line"/>
      <point x="192" y="758" type="line"/>
      <point x="52" y="802" type="line"/>
      <point x="65" y="961" type="line"/>
      <point x="244" y="982"/>
      <point x="381" y="997"/>
      <point x="600" y="997" type="curve" smooth="yes"/>
      <point x="892" y="997"/>
      <point x="1082" y="921"/>
      <point x="1082" y="675" type="curve" smooth="yes"/>
      <point x="1082" y="422"/>
      <point x="884" y="268"/>
      <point x="600" y="298" type="curve"/>
      <point x="568" y="452" type="line"/>
      <point x="589" y="452" type="line" smooth="yes"/>
      <point x="673" y="452"/>
      <point x="712" y="521"/>
      <point x="712" y="617" type="curve" smooth="yes"/>
      <point x="712" y="719"/>
      <point x="664" y="780"/>
      <point x="580" y="780" type="curve" smooth="yes"/>
      <point x="569" y="780"/>
      <point x="558" y="779"/>
      <point x="546" y="777" type="curve"/>
      <point x="546" y="233" type="line"/>
      <point x="727" y="164" type="line"/>
      <point x="703" y="0" type="line"/>
    </contour>
  </outline>
</glyph>
<glyph name="t" format="1">
  <advance width="1139"/>
  <unicode hex="0074"/>
  <outline>
    <contour>
      <point x="36" y="979" type="line"/>
      <point x="1105" y="979" type="line"/>
      <point x="1073" y="571" type="line"/>
      <point x="890" y="602" type="line"/>
      <point x="826" y="807" type="line"/>
      <point x="747" y="807" type="line"/>
      <point x="747" y="208" type="line"/>
      <point x="889" y="153" type="line"/>
      <point x="873" y="0" type="line"/>
      <point x="236" y="0" type="line"/>
      <point x="249" y="140" type="line"/>
      <point x="386" y="209" type="line"/>
      <point x="386" y="807" type="line"/>
      <point x="296" y="807" type="line"/>
      <point x="209" y="559" type="line"/>
      <point x="39" y="585" type="line"/>
    </contour>
  </outline>
</glyph>
<glyph name="braceleft" format="1">
  <advance width="771"/>
  <unicode hex="007B"/>
  <outline>
    <contour>
      <point x="684" y="-379" type="line"/>
      <point x="672" y="-173" type="line"/>
      <point x="548" y="-169" type="line" smooth="yes"/>
      <point x="395" y="-164"/>
      <point x="589" y="293"/>
      <point x="353" y="446" type="curve"/>
      <point x="353" y="459" type="line"/>
      <point x="589" y="503"/>
      <point x="416" y="1046"/>
      <point x="538" y="1049" type="curve" smooth="yes"/>
      <point x="671" y="1052" type="line"/>
      <point x="677" y="1255" type="line"/>
      <point x="437" y="1255" type="line" smooth="yes"/>
      <point x="28" y="1255"/>
      <point x="341" y="614"/>
      <point x="65" y="557" type="curve" smooth="yes"/>
      <point x="7" y="545" type="line"/>
      <point x="7" y="346" type="line"/>
      <point x="68" y="333" type="line" smooth="yes"/>
      <point x="333" y="276"/>
      <point x="24" y="-379"/>
      <point x="439" y="-379" type="curve" smooth="yes"/>
    </contour>
  </outline>
</glyph>
<glyph name="bar" format="1">
  <advance width="346"/>
  <unicode hex="007C"/>
  <outline>
    <contour>
      <point x="75" y="-363" type="line"/>
      <point x="75" y="1260" type="line"/>
      <point x="271" y="1248" type="line"/>
      <point x="271" y="-379" type="line"/>
    </contour>
  </outline>
</glyph>
<glyph name="braceright" format="1">
  <advance width="769"/>
  <unicode hex="007D"/>
  <outline>
    <contour>
      <point x="43" y="-379" type="line"/>
      <point x="55" y="-173" type="line"/>
      <point x="179" y="-169" type="line" smooth="yes"/>
      <point x="332" y="-164"/>
      <point x="138" y="293"/>
      <point x="374" y="446" type="curve"/>
      <point x="374" y="459" type="line"/>
      <point x="138" y="503"/>
      <point x="311" y="1046"/>
      <point x="189" y="1049" type="curve" smooth="yes"/>
      <point x="56" y="1052" type="line"/>
      <point x="50" y="1255" type="line"/>
      <point x="290" y="1255" type="line" smooth="yes"/>
      <point x="699" y="1255"/>
      <point x="386" y="614"/>
      <point x="662" y="557" type="curve" smooth="yes"/>
      <point x="720" y="545" type="line"/>
      <point x="720" y="346" type="line"/>
      <point x="659" y="333" type="line" smooth="yes"/>
      <point x="394" y="276"/>
      <point x="703" y="-379"/>
      <point x="288" y="-379" type="curve" smooth="yes"/>
    </contour>
  </outline>
</glyph>
<glyph name="exclamdown" format="1">
  <advance width="521"/>
  <unicode hex="00A1"/>
  <outline>
    <contour>
      <point x="426" y="773" type="curve" smooth="yes"/>
      <point x="426" y="708"/>
      <point x="380" y="620"/>
      <point x="217" y="620" type="curve" smooth="yes"/>
      <point x="44" y="620"/>
      <point x="-1" y="706"/>
      <point x="-1" y="770" type="curve" smooth="yes"/>
      <point x="-1" y="855"/>
      <point x="50" y="926"/>
      <point x="218" y="926" type="curve" smooth="yes"/>
      <point x="392" y="926"/>
      <point x="426" y="846"/>
    </contour>
    <contour>
      <point x="407" y="-294" type="curve" smooth="yes"/>
      <point x="407" y="-360"/>
      <point x="356" y="-406"/>
      <point x="201" y="-406" type="curve" smooth="yes"/>
      <point x="97" y="-406"/>
      <point x="47" y="-387"/>
      <point x="47" y="-315" type="curve" smooth="yes"/>
      <point x="47" y="-78"/>
      <point x="91" y="303"/>
      <point x="126" y="538" type="curve"/>
      <point x="293" y="509" type="line"/>
      <point x="338" y="272"/>
      <point x="407" y="-194"/>
    </contour>
  </outline>
</glyph>
<glyph name="cent" format="1">
  <advance width="963"/>
  <unicode hex="00A2"/>
  <outline>
    <contour>
      <point x="53" y="452" type="curve" smooth="yes"/>
      <point x="53" y="803"/>
      <point x="351" y="1012"/>
      <point x="591" y="1012" type="curve" smooth="yes"/>
      <point x="796" y="1012"/>
      <point x="886" y="868"/>
      <point x="886" y="730" type="curve" smooth="yes"/>
      <point x="886" y="614"/>
      <point x="802" y="548"/>
      <point x="694" y="536" type="curve"/>
      <point x="621" y="751"/>
      <point x="570" y="810"/>
      <point x="499" y="810" type="curve" smooth="yes"/>
      <point x="417" y="810"/>
      <point x="386" y="701"/>
      <point x="386" y="531" type="curve" smooth="yes"/>
      <point x="386" y="375"/>
      <point x="469" y="230"/>
      <point x="626" y="230" type="curve" smooth="yes"/>
      <point x="736" y="230"/>
      <point x="803" y="265"/>
      <point x="880" y="311" type="curve"/>
      <point x="920" y="177" type="line"/>
      <point x="869" y="69"/>
      <point x="706" y="-31"/>
      <point x="535" y="-31" type="curve" smooth="yes"/>
      <point x="181" y="-31"/>
      <point x="53" y="179"/>
    </contour>
    <contour>
      <point x="399" y="1232" type="line"/>
      <point x="626" y="1249" type="line"/>
      <point x="601" y="981" type="line"/>
      <point x="430" y="981" type="line"/>
    </contour>
    <contour>
      <point x="409" y="-266" type="line"/>
      <point x="435" y="0" type="line"/>
      <point x="605" y="0" type="line"/>
      <point x="638" y="-250" type="line"/>
    </contour>
  </outline>
</glyph>
<glyph name="currency" format="1">
  <advance width="947"/>
  <unicode hex="00A4"/>
  <outline>
    <contour>
      <point x="43" y="733" type="line"/>
      <point x="209" y="886" type="line"/>
      <point x="348" y="741" type="line"/>
      <point x="380" y="769"/>
      <point x="431" y="784"/>
      <point x="481" y="784" type="curve" smooth="yes"/>
      <point x="523" y="784"/>
      <point x="564" y="773"/>
      <point x="592" y="752" type="curve"/>
      <point x="733" y="891" type="line"/>
      <point x="898" y="732" type="line"/>
      <point x="749" y="595" type="line"/>
      <point x="765" y="566"/>
      <point x="773" y="527"/>
      <point x="773" y="488" type="curve" smooth="yes"/>
      <point x="773" y="447"/>
      <point x="764" y="405"/>
      <point x="744" y="372" type="curve"/>
      <point x="903" y="221" type="line"/>
      <point x="727" y="71" type="line"/>
      <point x="582" y="226" type="line"/>
      <point x="543" y="203"/>
      <point x="503" y="190"/>
      <point x="462" y="190" type="curve" smooth="yes"/>
      <point x="429" y="190"/>
      <point x="395" y="199"/>
      <point x="363" y="218" type="curve"/>
      <point x="217" y="54" type="line"/>
      <point x="52" y="212" type="line"/>
      <point x="207" y="362" type="line"/>
      <point x="184" y="395"/>
      <point x="172" y="439"/>
      <point x="172" y="484" type="curve" smooth="yes"/>
      <point x="172" y="521"/>
      <point x="181" y="559"/>
      <point x="199" y="589" type="curve"/>
    </contour>
    <contour>
      <point x="364" y="491" type="curve" smooth="yes"/>
      <point x="364" y="416"/>
      <point x="416" y="364"/>
      <point x="471" y="364" type="curve" smooth="yes"/>
      <point x="528" y="364"/>
      <point x="577" y="411"/>
      <point x="577" y="485" type="curve" smooth="yes"/>
      <point x="577" y="563"/>
      <point x="529" y="610"/>
      <point x="472" y="610" type="curve" smooth="yes"/>
      <point x="417" y="610"/>
      <point x="364" y="564"/>
    </contour>
  </outline>
</glyph>
<glyph name="yen" format="1">
  <advance width="1066"/>
  <unicode hex="00A5"/>
  <outline>
    <contour>
      <point x="32" y="823" type="line"/>
      <point x="62" y="979" type="line"/>
      <point x="568" y="979" type="line"/>
      <point x="542" y="823" type="line"/>
      <point x="488" y="762" type="line"/>
      <point x="577" y="532" type="line"/>
      <point x="678" y="759" type="line"/>
      <point x="628" y="821" type="line"/>
      <point x="650" y="978" type="line"/>
      <point x="1033" y="978" type="line"/>
      <point x="1011" y="821" type="line"/>
      <point x="938" y="761" type="line"/>
      <point x="729" y="408" type="line"/>
      <point x="1004" y="408" type="line"/>
      <point x="994" y="290" type="line"/>
      <point x="688" y="290" type="line"/>
      <point x="688" y="221" type="line"/>
      <point x="805" y="140" type="line"/>
      <point x="792" y="0" type="line"/>
      <point x="240" y="0" type="line"/>
      <point x="258" y="138" type="line"/>
      <point x="367" y="217" type="line"/>
      <point x="367" y="290" type="line"/>
      <point x="47" y="290" type="line"/>
      <point x="64" y="408" type="line"/>
      <point x="317" y="408" type="line"/>
      <point x="102" y="761" type="line"/>
    </contour>
    <contour>
      <point x="47" y="500" type="line"/>
      <point x="64" y="621" type="line"/>
      <point x="422" y="621" type="line"/>
      <point x="499" y="500" type="line"/>
    </contour>
    <contour>
      <point x="675" y="500" type="line"/>
      <point x="752" y="621" type="line"/>
      <point x="1004" y="621" type="line"/>
      <point x="994" y="500" type="line"/>
    </contour>
  </outline>
</glyph>
<glyph name="brokenbar" format="1">
  <advance width="366"/>
  <unicode hex="00A6"/>
  <outline>
    <contour>
      <point x="74" y="-351" type="line"/>
      <point x="74" y="415" type="line"/>
      <point x="293" y="387" type="line"/>
      <point x="293" y="-379" type="line"/>
    </contour>
    <contour>
      <point x="74" y="528" type="line"/>
      <point x="74" y="1274" type="line"/>
      <point x="290" y="1248" type="line"/>
      <point x="292" y="505" type="line"/>
    </contour>
  </outline>
</glyph>
<glyph name="dieresis" format="1">
  <advance width="744"/>
  <unicode hex="00A8"/>
  <outline>
    <contour>
      <point x="115.6" y="1464.9" type="curve" smooth="yes"/>
      <point x="115.6" y="1510.4"/>
      <point x="145.96" y="1572"/>
      <point x="253.54" y="1572" type="curve" smooth="yes"/>
      <point x="367.72" y="1572"/>
      <point x="397.42" y="1511.8"/>
      <point x="397.42" y="1467" type="curve" smooth="yes"/>
      <point x="397.42" y="1407.5"/>
      <point x="363.76" y="1357.8"/>
      <point x="252.88" y="1357.8" type="curve" smooth="yes"/>
      <point x="138.04" y="1357.8"/>
      <point x="115.6" y="1413.8"/>
    </contour>
    <contour>
      <point x="424.6" y="1464.9" type="curve" smooth="yes"/>
      <point x="424.6" y="1510.4"/>
      <point x="454.96" y="1572"/>
      <point x="562.54" y="1572" type="curve" smooth="yes"/>
      <point x="676.72" y="1572"/>
      <point x="706.42" y="1511.8"/>
      <point x="706.42" y="1467" type="curve" smooth="yes"/>
      <point x="706.42" y="1407.5"/>
      <point x="672.76" y="1357.8"/>
      <point x="561.88" y="1357.8" type="curve" smooth="yes"/>
      <point x="447.04" y="1357.8"/>
      <point x="424.6" y="1413.8"/>
    </contour>
  </outline>
</glyph>
<glyph name="copyright" format="1">
  <advance width="1507"/>
  <unicode hex="00A9"/>
  <outline>
    <contour>
      <point x="49" y="687" type="curve" smooth="yes"/>
      <point x="49" y="1131"/>
      <point x="363" y="1397"/>
      <point x="766" y="1397" type="curve" smooth="yes"/>
      <point x="1196" y="1397"/>
      <point x="1458" y="1116"/>
      <point x="1458" y="700" type="curve" smooth="yes"/>
      <point x="1458" y="345"/>
      <point x="1155" y="10"/>
      <point x="757" y="10" type="curve" smooth="yes"/>
      <point x="309" y="10"/>
      <point x="49" y="275"/>
    </contour>
    <contour>
      <point x="255" y="708" type="curve" smooth="yes"/>
      <point x="255" y="345"/>
      <point x="473" y="170"/>
      <point x="763" y="170" type="curve" smooth="yes"/>
      <point x="1039" y="170"/>
      <point x="1267" y="349"/>
      <point x="1267" y="690" type="curve" smooth="yes"/>
      <point x="1267" y="976"/>
      <point x="1112" y="1244"/>
      <point x="752" y="1244" type="curve" smooth="yes"/>
      <point x="432" y="1244"/>
      <point x="255" y="1023"/>
    </contour>
    <contour>
      <point x="382" y="678" type="curve" smooth="yes"/>
      <point x="382" y="972"/>
      <point x="629" y="1131"/>
      <point x="830" y="1131" type="curve" smooth="yes"/>
      <point x="974" y="1131"/>
      <point x="1071" y="1043"/>
      <point x="1071" y="927" type="curve" smooth="yes"/>
      <point x="1071" y="830"/>
      <point x="992" y="792"/>
      <point x="902" y="782" type="curve"/>
      <point x="852" y="937"/>
      <point x="813" y="971"/>
      <point x="766" y="971" type="curve" smooth="yes"/>
      <point x="693" y="971"/>
      <point x="661" y="911"/>
      <point x="661" y="752" type="curve" smooth="yes"/>
      <point x="661" y="621"/>
      <point x="730" y="488"/>
      <point x="861" y="488" type="curve" smooth="yes"/>
      <point x="953" y="488"/>
      <point x="1002" y="509"/>
      <point x="1066" y="548" type="curve"/>
      <point x="1099" y="461" type="line"/>
      <point x="1056" y="371"/>
      <point x="928" y="295"/>
      <point x="785" y="295" type="curve" smooth="yes"/>
      <point x="489" y="295"/>
      <point x="382" y="449"/>
    </contour>
  </outline>
</glyph>
<glyph name="ordfeminine" format="1">
  <advance width="836"/>
  <unicode hex="00AA"/>
  <outline>
    <contour>
      <point x="53" y="676" type="curve" smooth="yes"/>
      <point x="53" y="819"/>
      <point x="184" y="938"/>
      <point x="420" y="936" type="curve"/>
      <point x="420" y="1012" type="line" smooth="yes"/>
      <point x="420" y="1086"/>
      <point x="383" y="1132"/>
      <point x="329" y="1132" type="curve" smooth="yes"/>
      <point x="291" y="1132"/>
      <point x="283" y="1101"/>
      <point x="273" y="968" type="curve"/>
      <point x="177" y="968"/>
      <point x="80" y="982"/>
      <point x="80" y="1072" type="curve" smooth="yes"/>
      <point x="80" y="1164"/>
      <point x="281" y="1285"/>
      <point x="448" y="1285" type="curve" smooth="yes"/>
      <point x="566" y="1285"/>
      <point x="686" y="1224"/>
      <point x="686" y="1039" type="curve" smooth="yes"/>
      <point x="686" y="825" type="line" smooth="yes"/>
      <point x="686" y="734"/>
      <point x="693" y="709"/>
      <point x="764" y="694" type="curve" smooth="yes"/>
      <point x="787" y="689" type="line"/>
      <point x="767" y="553" type="line"/>
      <point x="721" y="526"/>
      <point x="676" y="507"/>
      <point x="598" y="507" type="curve" smooth="yes"/>
      <point x="511" y="507"/>
      <point x="477" y="537"/>
      <point x="452" y="601" type="curve" smooth="yes"/>
      <point x="448" y="611" type="line"/>
      <point x="438" y="616" type="line"/>
      <point x="414" y="552"/>
      <point x="315" y="508"/>
      <point x="230" y="508" type="curve" smooth="yes"/>
      <point x="123" y="508"/>
      <point x="53" y="560"/>
    </contour>
    <contour>
      <point x="310" y="749" type="curve" smooth="yes"/>
      <point x="310" y="717"/>
      <point x="323" y="690"/>
      <point x="364" y="690" type="curve" smooth="yes"/>
      <point x="384" y="690"/>
      <point x="398" y="697"/>
      <point x="420" y="713" type="curve"/>
      <point x="420" y="834" type="line"/>
      <point x="321" y="823"/>
      <point x="310" y="783"/>
    </contour>
  </outline>
</glyph>
<glyph name="guillemotleft" format="1">
  <advance width="767"/>
  <unicode hex="00AB"/>
  <outline>
    <contour>
      <point x="356" y="447" type="line"/>
      <point x="359" y="469" type="line"/>
      <point x="626" y="818" type="line"/>
      <point x="700" y="712" type="line"/>
      <point x="585" y="460" type="line"/>
      <point x="713" y="192" type="line"/>
      <point x="619" y="75" type="line"/>
    </contour>
    <contour>
      <point x="46" y="447" type="line"/>
      <point x="49" y="469" type="line"/>
      <point x="316" y="818" type="line"/>
      <point x="390" y="712" type="line"/>
      <point x="275" y="460" type="line"/>
      <point x="403" y="192" type="line"/>
      <point x="309" y="75" type="line"/>
    </contour>
  </outline>
</glyph>
<glyph name="softhyphen" format="1">
  <advance width="634"/>
  <unicode hex="00AD"/>
  <outline>
    <contour>
      <point x="61" y="348" type="line"/>
      <point x="66" y="572" type="line"/>
      <point x="573" y="628" type="line"/>
      <point x="567" y="405" type="line"/>
    </contour>
  </outline>
</glyph>
<glyph name="registered" format="1">
  <advance width="1227"/>
  <unicode hex="00AE"/>
  <outline>
    <contour>
      <point x="46" y="1022" type="curve" smooth="yes"/>
      <point x="46" y="1388"/>
      <point x="337" y="1542"/>
      <point x="605" y="1542" type="curve" smooth="yes"/>
      <point x="881" y="1542"/>
      <point x="1180" y="1404"/>
      <point x="1180" y="1026" type="curve" smooth="yes"/>
      <point x="1180" y="676"/>
      <point x="877" y="520"/>
      <point x="595" y="520" type="curve" smooth="yes"/>
      <point x="333" y="520"/>
      <point x="46" y="664"/>
    </contour>
    <contour>
      <point x="184" y="1036" type="curve" smooth="yes"/>
      <point x="184" y="776"/>
      <point x="351" y="636"/>
      <point x="603" y="636" type="curve" smooth="yes"/>
      <point x="879" y="636"/>
      <point x="1042" y="784"/>
      <point x="1042" y="1016" type="curve" smooth="yes"/>
      <point x="1042" y="1280"/>
      <point x="851" y="1426"/>
      <point x="605" y="1426" type="curve" smooth="yes"/>
      <point x="331" y="1426"/>
      <point x="184" y="1300"/>
    </contour>
    <contour>
      <point x="291" y="773" type="line"/>
      <point x="300" y="835" type="line"/>
      <point x="375" y="870" type="line"/>
      <point x="375" y="1221" type="line"/>
      <point x="299" y="1242" type="line"/>
      <point x="305" y="1314" type="line"/>
      <point x="370" y="1324"/>
      <point x="524" y="1337"/>
      <point x="591" y="1337" type="curve" smooth="yes"/>
      <point x="762" y="1337"/>
      <point x="865" y="1298"/>
      <point x="865" y="1181" type="curve" smooth="yes"/>
      <point x="865" y="1098"/>
      <point x="787" y="1057"/>
      <point x="738" y="1040" type="curve"/>
      <point x="738" y="1039" type="line"/>
      <point x="777" y="977" type="line" smooth="yes"/>
      <point x="818" y="913"/>
      <point x="887" y="867"/>
      <point x="929" y="843" type="curve" smooth="yes"/>
      <point x="947" y="833" type="line"/>
      <point x="933" y="774" type="line"/>
      <point x="914" y="768"/>
      <point x="881" y="761"/>
      <point x="835" y="761" type="curve" smooth="yes"/>
      <point x="724" y="761"/>
      <point x="645" y="823"/>
      <point x="615" y="918" type="curve" smooth="yes"/>
      <point x="595" y="979" type="line"/>
      <point x="562" y="979" type="line"/>
      <point x="562" y="876" type="line"/>
      <point x="616" y="842" type="line"/>
      <point x="611" y="773" type="line"/>
    </contour>
    <contour>
      <point x="562" y="1073" type="line"/>
      <point x="621" y="1073" type="line"/>
      <point x="656" y="1092"/>
      <point x="664" y="1118"/>
      <point x="664" y="1160" type="curve" smooth="yes"/>
      <point x="664" y="1211"/>
      <point x="639" y="1256"/>
      <point x="573" y="1256" type="curve" smooth="yes"/>
      <point x="568" y="1256"/>
      <point x="567" y="1256"/>
      <point x="562" y="1256" type="curve"/>
    </contour>
  </outline>
</glyph>
<glyph name="macron" format="1">
  <advance width="628"/>
  <unicode hex="00AF"/>
  <outline>
    <contour>
      <point x="77" y="1379" type="line"/>
      <point x="98" y="1574" type="line"/>
      <point x="551" y="1574" type="line"/>
      <point x="529" y="1379" type="line"/>
    </contour>
  </outline>
</glyph>
<glyph name="plusminus" format="1">
  <advance width="743"/>
  <unicode hex="00B1"/>
  <outline>
    <contour>
      <point x="104" y="610" type="line"/>
      <point x="112" y="775" type="line"/>
      <point x="331" y="775" type="line"/>
      <point x="331" y="1020" type="line"/>
      <point x="519" y="1008" type="line"/>
      <point x="519" y="775" type="line"/>
      <point x="745" y="775" type="line"/>
      <point x="732" y="610" type="line"/>
      <point x="519" y="610" type="line"/>
      <point x="519" y="376" type="line"/>
      <point x="331" y="380" type="line"/>
      <point x="331" y="610" type="line"/>
    </contour>
    <contour>
      <point x="133" y="141" type="line"/>
      <point x="148" y="319" type="line"/>
      <point x="728" y="341" type="line"/>
      <point x="713" y="156" type="line"/>
    </contour>
  </outline>
</glyph>
<glyph name="two.superior" format="1">
  <advance width="782"/>
  <unicode hex="00B2"/>
  <outline>
    <contour>
      <point x="57" y="706" type="line"/>
      <point x="173" y="789" type="line" smooth="yes"/>
      <point x="310" y="887"/>
      <point x="367" y="987"/>
      <point x="367" y="1044" type="curve" smooth="yes"/>
      <point x="367" y="1083"/>
      <point x="340" y="1106"/>
      <point x="295" y="1106" type="curve" smooth="yes"/>
      <point x="277" y="1106"/>
      <point x="267" y="1102"/>
      <point x="248" y="1095" type="curve"/>
      <point x="208" y="922" type="line"/>
      <point x="99" y="932" type="line"/>
      <point x="57" y="1160" type="line"/>
      <point x="131" y="1228"/>
      <point x="256" y="1276"/>
      <point x="400" y="1276" type="curve" smooth="yes"/>
      <point x="615" y="1276"/>
      <point x="697" y="1161"/>
      <point x="697" y="1085" type="curve" smooth="yes"/>
      <point x="697" y="932"/>
      <point x="524" y="828"/>
      <point x="407" y="780" type="curve" smooth="yes"/>
      <point x="327" y="747" type="line"/>
      <point x="528" y="727" type="line"/>
      <point x="616" y="848" type="line"/>
      <point x="727" y="842" type="line"/>
      <point x="693" y="528" type="line"/>
      <point x="71" y="528" type="line"/>
    </contour>
  </outline>
</glyph>
<glyph name="three.superior" format="1">
  <advance width="799"/>
  <unicode hex="00B3"/>
  <outline>
    <contour>
      <point x="50" y="1206" type="line"/>
      <point x="87" y="1259"/>
      <point x="244" y="1313"/>
      <point x="351" y="1313" type="curve" smooth="yes"/>
      <point x="553" y="1313"/>
      <point x="711" y="1280"/>
      <point x="711" y="1154" type="curve" smooth="yes"/>
      <point x="711" y="1054"/>
      <point x="569" y="979"/>
      <point x="463" y="954" type="curve"/>
      <point x="463" y="944" type="line"/>
      <point x="682" y="953"/>
      <point x="744" y="895"/>
      <point x="748" y="777" type="curve" smooth="yes"/>
      <point x="753" y="627"/>
      <point x="556" y="499"/>
      <point x="270" y="499" type="curve" smooth="yes"/>
      <point x="191" y="499"/>
      <point x="125" y="508"/>
      <point x="64" y="527" type="curve"/>
      <point x="111" y="804" type="line"/>
      <point x="269" y="796" type="line"/>
      <point x="280" y="675" type="line"/>
      <point x="289" y="673"/>
      <point x="299" y="671"/>
      <point x="308" y="671" type="curve" smooth="yes"/>
      <point x="345" y="671"/>
      <point x="382" y="694"/>
      <point x="382" y="744" type="curve" smooth="yes"/>
      <point x="382" y="805"/>
      <point x="338" y="861"/>
      <point x="262" y="841" type="curve"/>
      <point x="226" y="966" type="line"/>
      <point x="326" y="982"/>
      <point x="372" y="1018"/>
      <point x="372" y="1066" type="curve" smooth="yes"/>
      <point x="372" y="1126"/>
      <point x="333" y="1152"/>
      <point x="294" y="1152" type="curve" smooth="yes"/>
      <point x="288" y="1152"/>
      <point x="272" y="1151"/>
      <point x="266" y="1151" type="curve"/>
      <point x="234" y="1001" type="line"/>
      <point x="88" y="1006" type="line"/>
    </contour>
  </outline>
</glyph>
<glyph name="paragraph" format="1">
  <advance width="1473"/>
  <unicode hex="00B6"/>
  <outline>
    <contour>
      <point x="33" y="637" type="curve" smooth="yes"/>
      <point x="33" y="853"/>
      <point x="210" y="979"/>
      <point x="508" y="979" type="curve" smooth="yes"/>
      <point x="907" y="979" type="line"/>
      <point x="907" y="0" type="line"/>
      <point x="394" y="0" type="line"/>
      <point x="405" y="136" type="line"/>
      <point x="625" y="216" type="line"/>
      <point x="625" y="807" type="line"/>
      <point x="586" y="814"/>
      <point x="548" y="818"/>
      <point x="514" y="818" type="curve" smooth="yes"/>
      <point x="400" y="818"/>
      <point x="330" y="777"/>
      <point x="330" y="671" type="curve" smooth="yes"/>
      <point x="330" y="596"/>
      <point x="373" y="519"/>
      <point x="568" y="507" type="curve"/>
      <point x="545" y="322" type="line"/>
      <point x="172" y="322"/>
      <point x="33" y="455"/>
    </contour>
    <contour>
      <point x="983" y="0" type="line"/>
      <point x="983" y="979" type="line"/>
      <point x="1439" y="979" type="line"/>
      <point x="1419" y="827" type="line"/>
      <point x="1257" y="756" type="line"/>
      <point x="1257" y="212" type="line"/>
      <point x="1436" y="146" type="line"/>
      <point x="1423" y="0" type="line"/>
    </contour>
  </outline>
</glyph>
<glyph name="periodcentered" format="1">
  <advance width="541"/>
  <unicode hex="00B7"/>
  <outline>
    <contour>
      <point x="117" y="505" type="curve" smooth="yes"/>
      <point x="117" y="570"/>
      <point x="163" y="658"/>
      <point x="326" y="658" type="curve" smooth="yes"/>
      <point x="499" y="658"/>
      <point x="544" y="572"/>
      <point x="544" y="508" type="curve" smooth="yes"/>
      <point x="544" y="423"/>
      <point x="493" y="352"/>
      <point x="325" y="352" type="curve" smooth="yes"/>
      <point x="151" y="352"/>
      <point x="117" y="432"/>
    </contour>
  </outline>
</glyph>
<glyph name="cedilla" format="1">
  <advance width="529"/>
  <unicode hex="00B8"/>
  <outline>
    <contour>
      <point x="72" y="-300" type="line"/>
      <point x="152" y="-299"/>
      <point x="209" y="-266"/>
      <point x="209" y="-236" type="curve" smooth="yes"/>
      <point x="209" y="-197"/>
      <point x="106" y="-162"/>
      <point x="53" y="-144" type="curve"/>
      <point x="241" y="3" type="line"/>
      <point x="415" y="3" type="line"/>
      <point x="297" y="-83" type="line"/>
      <point x="403" y="-92"/>
      <point x="472" y="-136"/>
      <point x="472" y="-226" type="curve" smooth="yes"/>
      <point x="472" y="-335"/>
      <point x="379" y="-388"/>
      <point x="108" y="-388" type="curve"/>
    </contour>
  </outline>
</glyph>
<glyph name="ordmasculine" format="1">
  <advance width="889"/>
  <unicode hex="00BA"/>
  <outline>
    <contour>
      <point x="51" y="900" type="curve" smooth="yes"/>
      <point x="51" y="1145"/>
      <point x="279" y="1289"/>
      <point x="457" y="1289" type="curve" smooth="yes"/>
      <point x="699" y="1289"/>
      <point x="837" y="1169"/>
      <point x="837" y="920" type="curve" smooth="yes"/>
      <point x="837" y="667"/>
      <point x="673" y="507"/>
      <point x="440" y="507" type="curve" smooth="yes"/>
      <point x="146" y="507"/>
      <point x="51" y="701"/>
    </contour>
    <contour>
      <point x="338" y="951" type="curve" smooth="yes"/>
      <point x="338" y="758"/>
      <point x="367" y="663"/>
      <point x="465" y="663" type="curve" smooth="yes"/>
      <point x="532" y="663"/>
      <point x="547" y="698"/>
      <point x="547" y="814" type="curve" smooth="yes"/>
      <point x="547" y="960"/>
      <point x="547" y="1123"/>
      <point x="427" y="1123" type="curve" smooth="yes"/>
      <point x="350" y="1123"/>
      <point x="338" y="1061"/>
    </contour>
  </outline>
</glyph>
<glyph name="guillemotright" format="1">
  <advance width="767"/>
  <unicode hex="00BB"/>
  <outline>
    <contour>
      <point x="412" y="447" type="line"/>
      <point x="409" y="469" type="line"/>
      <point x="142" y="818" type="line"/>
      <point x="68" y="712" type="line"/>
      <point x="183" y="460" type="line"/>
      <point x="55" y="192" type="line"/>
      <point x="149" y="75" type="line"/>
    </contour>
    <contour>
      <point x="722" y="447" type="line"/>
      <point x="719" y="469" type="line"/>
      <point x="452" y="818" type="line"/>
      <point x="378" y="712" type="line"/>
      <point x="493" y="460" type="line"/>
      <point x="365" y="192" type="line"/>
      <point x="459" y="75" type="line"/>
    </contour>
  </outline>
</glyph>
<glyph name="onequarter" format="1">
  <advance width="1865"/>
  <unicode hex="00BC"/>
  <outline>
    <contour>
      <point x="45" y="528" type="line"/>
      <point x="60" y="658" type="line"/>
      <point x="188" y="693" type="line"/>
      <point x="188" y="1073" type="line"/>
      <point x="67" y="1073" type="line"/>
      <point x="78" y="1241" type="line"/>
      <point x="456" y="1274" type="line"/>
      <point x="525" y="1274" type="line"/>
      <point x="525" y="686" type="line"/>
      <point x="662" y="666" type="line"/>
      <point x="655" y="528" type="line"/>
    </contour>
    <contour>
      <point x="269" y="35" type="line"/>
      <point x="826" y="588" type="line"/>
      <point x="1369" y="1207" type="line"/>
      <point x="1671" y="1205" type="line"/>
      <point x="1671" y="1130" type="line"/>
      <point x="1130" y="591" type="line"/>
      <point x="637" y="-19" type="line"/>
    </contour>
    <contour>
      <point x="1076" y="295" type="line"/>
      <point x="1574" y="707" type="line"/>
      <point x="1685" y="681" type="line"/>
      <point x="1680" y="623"/>
      <point x="1674" y="513"/>
      <point x="1674" y="425" type="curve" smooth="yes"/>
      <point x="1674" y="314" type="line"/>
      <point x="1822" y="314" type="line"/>
      <point x="1813" y="145" type="line"/>
      <point x="1674" y="145" type="line"/>
      <point x="1674" y="63" type="line"/>
      <point x="1773" y="35" type="line"/>
      <point x="1766" y="-60" type="line"/>
      <point x="1281" y="-60" type="line"/>
      <point x="1286" y="30" type="line"/>
      <point x="1385" y="62" type="line"/>
      <point x="1385" y="148" type="line"/>
      <point x="1091" y="148" type="line"/>
    </contour>
    <contour>
      <point x="1279" y="275" type="line"/>
      <point x="1404" y="275" type="line"/>
      <point x="1404" y="441" type="line"/>
    </contour>
  </outline>
</glyph>
<glyph name="questiondown" format="1">
  <advance width="747"/>
  <unicode hex="00BF"/>
  <outline>
    <contour>
      <point x="665" y="-231" type="curve" smooth="yes"/>
      <point x="665" y="-314"/>
      <point x="607" y="-389"/>
      <point x="434" y="-389" type="curve" smooth="yes"/>
      <point x="221" y="-389"/>
      <point x="4" y="-123"/>
      <point x="4" y="96" type="curve" smooth="yes"/>
      <point x="4" y="378"/>
      <point x="292" y="310"/>
      <point x="292" y="463" type="curve" smooth="yes"/>
      <point x="292" y="473"/>
      <point x="282" y="528"/>
      <point x="279" y="540" type="curve"/>
      <point x="449" y="528" type="line"/>
      <point x="516" y="428"/>
      <point x="543" y="318"/>
      <point x="543" y="267" type="curve" smooth="yes"/>
      <point x="543" y="100"/>
      <point x="216" y="110"/>
      <point x="216" y="2" type="curve" smooth="yes"/>
      <point x="216" y="-47"/>
      <point x="285" y="-73"/>
      <point x="340" y="-73" type="curve" smooth="yes"/>
      <point x="420" y="-73"/>
      <point x="529" y="-41"/>
      <point x="554" y="-14" type="curve"/>
      <point x="602" y="-40"/>
      <point x="665" y="-135"/>
    </contour>
    <contour>
      <point x="580" y="775" type="curve" smooth="yes"/>
      <point x="580" y="710"/>
      <point x="534" y="622"/>
      <point x="371" y="622" type="curve" smooth="yes"/>
      <point x="198" y="622"/>
      <point x="153" y="708"/>
      <point x="153" y="772" type="curve" smooth="yes"/>
      <point x="153" y="857"/>
      <point x="204" y="928"/>
      <point x="372" y="928" type="curve" smooth="yes"/>
      <point x="546" y="928"/>
      <point x="580" y="848"/>
    </contour>
  </outline>
</glyph>
<glyph name="Aacute" format="1">
  <advance width="1502"/>
  <unicode hex="00C1"/>
  <outline>
    <contour>
      <point x="34" y="0" type="line"/>
      <point x="53" y="138" type="line"/>
      <point x="204" y="241" type="line"/>
      <point x="592" y="1205" type="line"/>
      <point x="939" y="1270" type="line"/>
      <point x="1329" y="238" type="line"/>
      <point x="1467" y="145" type="line"/>
      <point x="1455" y="-2" type="line"/>
      <point x="740" y="-2" type="line"/>
      <point x="756" y="136" type="line"/>
      <point x="922" y="240" type="line"/>
      <point x="884" y="352" type="line"/>
      <point x="492" y="352" type="line"/>
      <point x="455" y="240" type="line"/>
      <point x="644" y="148" type="line"/>
      <point x="629" y="0" type="line"/>
    </contour>
    <contour>
      <point x="562" y="561" type="line"/>
      <point x="813" y="561" type="line"/>
      <point x="686" y="933" type="line"/>
    </contour>
    <contour>
      <point x="633" y="1337" type="line"/>
      <point x="778" y="1642" type="line"/>
      <point x="1128" y="1632" type="line"/>
      <point x="867" y="1311" type="line"/>
    </contour>
  </outline>
</glyph>
<glyph name="Atilde" format="1">
  <advance width="1502"/>
  <unicode hex="00C3"/>
  <outline>
    <contour>
      <point x="34" y="0" type="line"/>
      <point x="53" y="138" type="line"/>
      <point x="204" y="241" type="line"/>
      <point x="592" y="1205" type="line"/>
      <point x="939" y="1270" type="line"/>
      <point x="1329" y="238" type="line"/>
      <point x="1467" y="145" type="line"/>
      <point x="1455" y="-2" type="line"/>
      <point x="740" y="-2" type="line"/>
      <point x="756" y="136" type="line"/>
      <point x="922" y="240" type="line"/>
      <point x="884" y="352" type="line"/>
      <point x="492" y="352" type="line"/>
      <point x="455" y="240" type="line"/>
      <point x="644" y="148" type="line"/>
      <point x="629" y="0" type="line"/>
    </contour>
    <contour>
      <point x="562" y="561" type="line"/>
      <point x="813" y="561" type="line"/>
      <point x="686" y="933" type="line"/>
    </contour>
    <contour>
      <point x="464" y="1319" type="line"/>
      <point x="471" y="1593"/>
      <point x="603" y="1627"/>
      <point x="769" y="1576" type="curve" smooth="yes"/>
      <point x="839" y="1554" type="line" smooth="yes"/>
      <point x="929" y="1526"/>
      <point x="971" y="1535"/>
      <point x="990" y="1604" type="curve"/>
      <point x="1105" y="1593" type="line"/>
      <point x="1091" y="1336"/>
      <point x="989" y="1279"/>
      <point x="811" y="1334" type="curve" smooth="yes"/>
      <point x="745" y="1354" type="line" smooth="yes"/>
      <point x="630" y="1389"/>
      <point x="604" y="1372"/>
      <point x="581" y="1308" type="curve"/>
    </contour>
  </outline>
</glyph>
<glyph name="Adieresis" format="1">
  <advance width="1502"/>
  <unicode hex="00C4"/>
  <outline>
    <contour>
      <point x="34" y="0" type="line"/>
      <point x="53" y="138" type="line"/>
      <point x="204" y="241" type="line"/>
      <point x="592" y="1205" type="line"/>
      <point x="939" y="1270" type="line"/>
      <point x="1329" y="238" type="line"/>
      <point x="1467" y="145" type="line"/>
      <point x="1455" y="-2" type="line"/>
      <point x="740" y="-2" type="line"/>
      <point x="756" y="136" type="line"/>
      <point x="922" y="240" type="line"/>
      <point x="884" y="352" type="line"/>
      <point x="492" y="352" type="line"/>
      <point x="455" y="240" type="line"/>
      <point x="644" y="148" type="line"/>
      <point x="629" y="0" type="line"/>
    </contour>
    <contour>
      <point x="562" y="561" type="line"/>
      <point x="813" y="561" type="line"/>
      <point x="686" y="933" type="line"/>
    </contour>
    <contour>
      <point x="788.6" y="1415.9" type="curve" smooth="yes"/>
      <point x="788.6" y="1461.4"/>
      <point x="818.96" y="1523"/>
      <point x="926.54" y="1523" type="curve" smooth="yes"/>
      <point x="1040.72" y="1523"/>
      <point x="1070.42" y="1462.8"/>
      <point x="1070.42" y="1418" type="curve" smooth="yes"/>
      <point x="1070.42" y="1358.5"/>
      <point x="1036.76" y="1308.8"/>
      <point x="925.88" y="1308.8" type="curve" smooth="yes"/>
      <point x="811.04" y="1308.8"/>
      <point x="788.6" y="1364.8"/>
    </contour>
    <contour>
      <point x="479.6" y="1415.9" type="curve" smooth="yes"/>
      <point x="479.6" y="1461.4"/>
      <point x="509.96" y="1523"/>
      <point x="617.54" y="1523" type="curve" smooth="yes"/>
      <point x="731.72" y="1523"/>
      <point x="761.42" y="1462.8"/>
      <point x="761.42" y="1418" type="curve" smooth="yes"/>
      <point x="761.42" y="1358.5"/>
      <point x="727.76" y="1308.8"/>
      <point x="616.88" y="1308.8" type="curve" smooth="yes"/>
      <point x="502.04" y="1308.8"/>
      <point x="479.6" y="1364.8"/>
    </contour>
  </outline>
</glyph>
<glyph name="Aring" format="1">
  <advance width="1502"/>
  <unicode hex="00C5"/>
  <outline>
    <contour>
      <point x="34" y="0" type="line"/>
      <point x="53" y="138" type="line"/>
      <point x="204" y="241" type="line"/>
      <point x="592" y="1205" type="line"/>
      <point x="939" y="1270" type="line"/>
      <point x="1329" y="238" type="line"/>
      <point x="1467" y="145" type="line"/>
      <point x="1455" y="-2" type="line"/>
      <point x="740" y="-2" type="line"/>
      <point x="756" y="136" type="line"/>
      <point x="922" y="240" type="line"/>
      <point x="884" y="352" type="line"/>
      <point x="492" y="352" type="line"/>
      <point x="455" y="240" type="line"/>
      <point x="644" y="148" type="line"/>
      <point x="629" y="0" type="line"/>
    </contour>
    <contour>
      <point x="562" y="561" type="line"/>
      <point x="813" y="561" type="line"/>
      <point x="686" y="933" type="line"/>
    </contour>
    <contour>
      <point x="486" y="1469" type="curve" smooth="yes"/>
      <point x="486" y="1563"/>
      <point x="568" y="1642"/>
      <point x="770" y="1642" type="curve" smooth="yes"/>
      <point x="972" y="1642"/>
      <point x="1055" y="1582"/>
      <point x="1055" y="1478" type="curve" smooth="yes"/>
      <point x="1055" y="1392"/>
      <point x="974" y="1307"/>
      <point x="762" y="1307" type="curve" smooth="yes"/>
      <point x="557" y="1307"/>
      <point x="486" y="1370"/>
    </contour>
    <contour>
      <point x="697" y="1474" type="curve" smooth="yes"/>
      <point x="697" y="1430"/>
      <point x="730" y="1417"/>
      <point x="765" y="1417" type="curve" smooth="yes"/>
      <point x="797" y="1417"/>
      <point x="832" y="1436"/>
      <point x="832" y="1474" type="curve" smooth="yes"/>
      <point x="832" y="1511"/>
      <point x="796" y="1533"/>
      <point x="759" y="1533" type="curve" smooth="yes"/>
      <point x="729" y="1533"/>
      <point x="697" y="1508"/>
    </contour>
  </outline>
</glyph>
<glyph name="AE" format="1">
  <advance width="1983"/>
  <unicode hex="00C6"/>
  <outline>
    <contour>
      <point x="45" y="-2" type="line"/>
      <point x="65" y="162" type="line"/>
      <point x="199" y="237" type="line"/>
      <point x="760" y="1020" type="line"/>
      <point x="580" y="1094" type="line"/>
      <point x="601" y="1244" type="line"/>
      <point x="1852" y="1244" type="line"/>
      <point x="1822" y="826" type="line"/>
      <point x="1651" y="852" type="line"/>
      <point x="1568" y="1072" type="line"/>
      <point x="1320" y="1072" type="line"/>
      <point x="1337" y="708" type="line"/>
      <point x="1469" y="724" type="line"/>
      <point x="1497" y="727" type="line"/>
      <point x="1675" y="749" type="line"/>
      <point x="1643" y="507" type="line"/>
      <point x="1477" y="523" type="line"/>
      <point x="1453" y="526" type="line"/>
      <point x="1344" y="536" type="line"/>
      <point x="1360" y="198" type="line"/>
      <point x="1626" y="180" type="line"/>
      <point x="1772" y="428" type="line"/>
      <point x="1937" y="411" type="line"/>
      <point x="1907" y="0" type="line"/>
      <point x="836" y="0" type="line"/>
      <point x="849" y="138" type="line"/>
      <point x="1012" y="217" type="line"/>
      <point x="999" y="443" type="line"/>
      <point x="597" y="443" type="line"/>
      <point x="465" y="243" type="line"/>
      <point x="646" y="150" type="line"/>
      <point x="629" y="-2" type="line"/>
    </contour>
    <contour>
      <point x="701" y="615" type="line"/>
      <point x="987" y="615" type="line"/>
      <point x="975" y="1008" type="line"/>
    </contour>
  </outline>
</glyph>
<glyph name="Ccedilla" format="1">
  <advance width="1235"/>
  <unicode hex="00C7"/>
  <outline>
    <contour>
      <point x="36" y="583" type="curve" smooth="yes"/>
      <point x="36" y="933"/>
      <point x="245" y="1272"/>
      <point x="773" y="1272" type="curve" smooth="yes"/>
      <point x="896" y="1272"/>
      <point x="1075" y="1233"/>
      <point x="1148" y="1172" type="curve"/>
      <point x="1117" y="748" type="line"/>
      <point x="947" y="771" type="line"/>
      <point x="883" y="1003" type="line"/>
      <point x="837" y="1055"/>
      <point x="754" y="1091"/>
      <point x="674" y="1091" type="curve" smooth="yes"/>
      <point x="512" y="1091"/>
      <point x="428" y="934"/>
      <point x="428" y="676" type="curve" smooth="yes"/>
      <point x="428" y="379"/>
      <point x="593" y="205"/>
      <point x="815" y="205" type="curve" smooth="yes"/>
      <point x="960" y="205"/>
      <point x="1059" y="252"/>
      <point x="1141" y="313" type="curve"/>
      <point x="1200" y="178" type="line"/>
      <point x="1129" y="78"/>
      <point x="926" y="-29"/>
      <point x="686" y="-29" type="curve" smooth="yes"/>
      <point x="241" y="-29"/>
      <point x="36" y="203"/>
    </contour>
    <contour>
      <point x="472" y="-319" type="line"/>
      <point x="552" y="-318"/>
      <point x="609" y="-285"/>
      <point x="609" y="-255" type="curve" smooth="yes"/>
      <point x="609" y="-216"/>
      <point x="506" y="-181"/>
      <point x="453" y="-163" type="curve"/>
      <point x="641" y="-16" type="line"/>
      <point x="815" y="-16" type="line"/>
      <point x="697" y="-102" type="line"/>
      <point x="803" y="-111"/>
      <point x="872" y="-155"/>
      <point x="872" y="-245" type="curve" smooth="yes"/>
      <point x="872" y="-354"/>
      <point x="779" y="-407"/>
      <point x="508" y="-407" type="curve"/>
    </contour>
  </outline>
</glyph>
<glyph name="Eacute" format="1">
  <advance width="1306"/>
  <unicode hex="00C9"/>
  <outline>
    <contour>
      <point x="34" y="1100" type="line"/>
      <point x="53" y="1244" type="line"/>
      <point x="1226" y="1244" type="line"/>
      <point x="1196" y="826" type="line"/>
      <point x="1025" y="852" type="line"/>
      <point x="942" y="1072" type="line"/>
      <point x="597" y="1072" type="line"/>
      <point x="597" y="712" type="line"/>
      <point x="730" y="723" type="line"/>
      <point x="762" y="725" type="line"/>
      <point x="1016" y="746" type="line"/>
      <point x="983" y="470" type="line"/>
      <point x="742" y="514" type="line"/>
      <point x="710" y="520" type="line"/>
      <point x="597" y="540" type="line"/>
      <point x="597" y="200" type="line"/>
      <point x="960" y="180" type="line"/>
      <point x="1106" y="428" type="line"/>
      <point x="1271" y="411" type="line"/>
      <point x="1241" y="0" type="line"/>
      <point x="50" y="0" type="line"/>
      <point x="60" y="158" type="line"/>
      <point x="224" y="217" type="line"/>
      <point x="224" y="1030" type="line"/>
    </contour>
    <contour>
      <point x="503" y="1336" type="line"/>
      <point x="648" y="1641" type="line"/>
      <point x="998" y="1631" type="line"/>
      <point x="737" y="1310" type="line"/>
    </contour>
  </outline>
</glyph>
<glyph name="Ecircumflex" format="1">
  <advance width="1306"/>
  <unicode hex="00CA"/>
  <outline>
    <contour>
      <point x="34" y="1100" type="line"/>
      <point x="53" y="1244" type="line"/>
      <point x="1226" y="1244" type="line"/>
      <point x="1196" y="826" type="line"/>
      <point x="1025" y="852" type="line"/>
      <point x="942" y="1072" type="line"/>
      <point x="597" y="1072" type="line"/>
      <point x="597" y="712" type="line"/>
      <point x="730" y="723" type="line"/>
      <point x="762" y="725" type="line"/>
      <point x="1016" y="746" type="line"/>
      <point x="983" y="470" type="line"/>
      <point x="742" y="514" type="line"/>
      <point x="710" y="520" type="line"/>
      <point x="597" y="540" type="line"/>
      <point x="597" y="200" type="line"/>
      <point x="960" y="180" type="line"/>
      <point x="1106" y="428" type="line"/>
      <point x="1271" y="411" type="line"/>
      <point x="1241" y="0" type="line"/>
      <point x="50" y="0" type="line"/>
      <point x="60" y="158" type="line"/>
      <point x="224" y="217" type="line"/>
      <point x="224" y="1030" type="line"/>
    </contour>
    <contour>
      <point x="364" y="1316" type="line"/>
      <point x="517" y="1571" type="line"/>
      <point x="842" y="1571" type="line"/>
      <point x="996" y="1316" type="line"/>
      <point x="743" y="1307" type="line"/>
      <point x="679" y="1428" type="line"/>
      <point x="665" y="1428" type="line"/>
      <point x="597" y="1306" type="line"/>
    </contour>
  </outline>
</glyph>
<glyph name="Edieresis" format="1">
  <advance width="1306"/>
  <unicode hex="00CB"/>
  <outline>
    <contour>
      <point x="34" y="1100" type="line"/>
      <point x="53" y="1244" type="line"/>
      <point x="1226" y="1244" type="line"/>
      <point x="1196" y="826" type="line"/>
      <point x="1025" y="852" type="line"/>
      <point x="942" y="1072" type="line"/>
      <point x="597" y="1072" type="line"/>
      <point x="597" y="712" type="line"/>
      <point x="730" y="723" type="line"/>
      <point x="762" y="725" type="line"/>
      <point x="1016" y="746" type="line"/>
      <point x="983" y="470" type="line"/>
      <point x="742" y="514" type="line"/>
      <point x="710" y="520" type="line"/>
      <point x="597" y="540" type="line"/>
      <point x="597" y="200" type="line"/>
      <point x="960" y="180" type="line"/>
      <point x="1106" y="428" type="line"/>
      <point x="1271" y="411" type="line"/>
      <point x="1241" y="0" type="line"/>
      <point x="50" y="0" type="line"/>
      <point x="60" y="158" type="line"/>
      <point x="224" y="217" type="line"/>
      <point x="224" y="1030" type="line"/>
    </contour>
    <contour>
      <point x="690.6" y="1417.9" type="curve" smooth="yes"/>
      <point x="690.6" y="1463.4"/>
      <point x="720.96" y="1525"/>
      <point x="828.54" y="1525" type="curve" smooth="yes"/>
      <point x="942.72" y="1525"/>
      <point x="972.42" y="1464.8"/>
      <point x="972.42" y="1420" type="curve" smooth="yes"/>
      <point x="972.42" y="1360.5"/>
      <point x="938.76" y="1310.8"/>
      <point x="827.88" y="1310.8" type="curve" smooth="yes"/>
      <point x="713.04" y="1310.8"/>
      <point x="690.6" y="1366.8"/>
    </contour>
    <contour>
      <point x="381.6" y="1417.9" type="curve" smooth="yes"/>
      <point x="381.6" y="1463.4"/>
      <point x="411.96" y="1525"/>
      <point x="519.54" y="1525" type="curve" smooth="yes"/>
      <point x="633.72" y="1525"/>
      <point x="663.42" y="1464.8"/>
      <point x="663.42" y="1420" type="curve" smooth="yes"/>
      <point x="663.42" y="1360.5"/>
      <point x="629.76" y="1310.8"/>
      <point x="518.88" y="1310.8" type="curve" smooth="yes"/>
      <point x="404.04" y="1310.8"/>
      <point x="381.6" y="1366.8"/>
    </contour>
  </outline>
</glyph>
<glyph name="Iacute" format="1">
  <advance width="816"/>
  <unicode hex="00CD"/>
  <outline>
    <contour>
      <point x="34" y="1094" type="line"/>
      <point x="54" y="1244" type="line"/>
      <point x="781" y="1244" type="line"/>
      <point x="765" y="1084" type="line"/>
      <point x="586" y="1017" type="line"/>
      <point x="586" y="223" type="line"/>
      <point x="766" y="160" type="line"/>
      <point x="753" y="0" type="line"/>
      <point x="36" y="0" type="line"/>
      <point x="46" y="142" type="line"/>
      <point x="222" y="221" type="line"/>
      <point x="222" y="1020" type="line"/>
    </contour>
    <contour>
      <point x="221" y="1334" type="line"/>
      <point x="366" y="1639" type="line"/>
      <point x="716" y="1629" type="line"/>
      <point x="455" y="1308" type="line"/>
    </contour>
  </outline>
</glyph>
<glyph name="Icircumflex" format="1">
  <advance width="816"/>
  <unicode hex="00CE"/>
  <outline>
    <contour>
      <point x="34" y="1094" type="line"/>
      <point x="54" y="1244" type="line"/>
      <point x="781" y="1244" type="line"/>
      <point x="765" y="1084" type="line"/>
      <point x="586" y="1017" type="line"/>
      <point x="586" y="223" type="line"/>
      <point x="766" y="160" type="line"/>
      <point x="753" y="0" type="line"/>
      <point x="36" y="0" type="line"/>
      <point x="46" y="142" type="line"/>
      <point x="222" y="221" type="line"/>
      <point x="222" y="1020" type="line"/>
    </contour>
    <contour>
      <point x="104" y="1315" type="line"/>
      <point x="257" y="1570" type="line"/>
      <point x="582" y="1570" type="line"/>
      <point x="736" y="1315" type="line"/>
      <point x="483" y="1306" type="line"/>
      <point x="419" y="1427" type="line"/>
      <point x="405" y="1427" type="line"/>
      <point x="337" y="1305" type="line"/>
    </contour>
  </outline>
</glyph>
<glyph name="Idieresis" format="1">
  <advance width="816"/>
  <unicode hex="00CF"/>
  <outline>
    <contour>
      <point x="34" y="1094" type="line"/>
      <point x="54" y="1244" type="line"/>
      <point x="781" y="1244" type="line"/>
      <point x="765" y="1084" type="line"/>
      <point x="586" y="1017" type="line"/>
      <point x="586" y="223" type="line"/>
      <point x="766" y="160" type="line"/>
      <point x="753" y="0" type="line"/>
      <point x="36" y="0" type="line"/>
      <point x="46" y="142" type="line"/>
      <point x="222" y="221" type="line"/>
      <point x="222" y="1020" type="line"/>
    </contour>
    <contour>
      <point x="426.6" y="1411.9" type="curve" smooth="yes"/>
      <point x="426.6" y="1457.4"/>
      <point x="456.96" y="1519"/>
      <point x="564.54" y="1519" type="curve" smooth="yes"/>
      <point x="678.72" y="1519"/>
      <point x="708.42" y="1458.8"/>
      <point x="708.42" y="1414" type="curve" smooth="yes"/>
      <point x="708.42" y="1354.5"/>
      <point x="674.76" y="1304.8"/>
      <point x="563.88" y="1304.8" type="curve" smooth="yes"/>
      <point x="449.04" y="1304.8"/>
      <point x="426.6" y="1360.8"/>
    </contour>
    <contour>
      <point x="117.6" y="1411.9" type="curve" smooth="yes"/>
      <point x="117.6" y="1457.4"/>
      <point x="147.96" y="1519"/>
      <point x="255.54" y="1519" type="curve" smooth="yes"/>
      <point x="369.72" y="1519"/>
      <point x="399.42" y="1458.8"/>
      <point x="399.42" y="1414" type="curve" smooth="yes"/>
      <point x="399.42" y="1354.5"/>
      <point x="365.76" y="1304.8"/>
      <point x="254.88" y="1304.8" type="curve" smooth="yes"/>
      <point x="140.04" y="1304.8"/>
      <point x="117.6" y="1360.8"/>
    </contour>
  </outline>
</glyph>
<glyph name="Ntilde" format="1">
  <advance width="1442"/>
  <unicode hex="00D1"/>
  <outline>
    <contour>
      <point x="34" y="0" type="line"/>
      <point x="44" y="138" type="line"/>
      <point x="215" y="217" type="line"/>
      <point x="215" y="1003" type="line"/>
      <point x="38" y="1087" type="line"/>
      <point x="52" y="1244" type="line"/>
      <point x="462" y="1244" type="line"/>
      <point x="1024" y="513" type="line"/>
      <point x="1024" y="1020" type="line"/>
      <point x="836" y="1094" type="line"/>
      <point x="860" y="1244" type="line"/>
      <point x="1407" y="1244" type="line"/>
      <point x="1382" y="1094" type="line"/>
      <point x="1244" y="1027" type="line"/>
      <point x="1244" y="15" type="line"/>
      <point x="951" y="-29" type="line"/>
      <point x="448" y="619" type="line"/>
      <point x="448" y="211" type="line"/>
      <point x="628" y="148" type="line"/>
      <point x="615" y="0" type="line"/>
    </contour>
    <contour>
      <point x="377" y="1319" type="line"/>
      <point x="384" y="1593"/>
      <point x="516" y="1627"/>
      <point x="682" y="1576" type="curve" smooth="yes"/>
      <point x="752" y="1554" type="line" smooth="yes"/>
      <point x="842" y="1526"/>
      <point x="884" y="1535"/>
      <point x="903" y="1604" type="curve"/>
      <point x="1018" y="1593" type="line"/>
      <point x="1004" y="1336"/>
      <point x="902" y="1279"/>
      <point x="724" y="1334" type="curve" smooth="yes"/>
      <point x="658" y="1354" type="line" smooth="yes"/>
      <point x="543" y="1389"/>
      <point x="517" y="1372"/>
      <point x="494" y="1308" type="curve"/>
    </contour>
  </outline>
</glyph>
<glyph name="Oacute" format="1">
  <advance width="1355"/>
  <unicode hex="00D3"/>
  <outline>
    <contour>
      <point x="36" y="619" type="curve" smooth="yes"/>
      <point x="36" y="1004"/>
      <point x="285" y="1269"/>
      <point x="699" y="1269" type="curve" smooth="yes"/>
      <point x="1060" y="1269"/>
      <point x="1318" y="1092"/>
      <point x="1318" y="613" type="curve" smooth="yes"/>
      <point x="1318" y="196"/>
      <point x="1027" y="-27"/>
      <point x="659" y="-27" type="curve" smooth="yes"/>
      <point x="230" y="-27"/>
      <point x="36" y="239"/>
    </contour>
    <contour>
      <point x="444" y="671" type="curve" smooth="yes"/>
      <point x="444" y="526"/>
      <point x="488" y="163"/>
      <point x="712" y="163" type="curve" smooth="yes"/>
      <point x="837" y="163"/>
      <point x="904" y="287"/>
      <point x="904" y="573" type="curve" smooth="yes"/>
      <point x="904" y="720"/>
      <point x="871" y="1094"/>
      <point x="653" y="1094" type="curve" smooth="yes"/>
      <point x="500" y="1094"/>
      <point x="444" y="933"/>
    </contour>
    <contour>
      <point x="481" y="1336" type="line"/>
      <point x="626" y="1641" type="line"/>
      <point x="976" y="1631" type="line"/>
      <point x="715" y="1310" type="line"/>
    </contour>
  </outline>
</glyph>
<glyph name="Ocircumflex" format="1">
  <advance width="1355"/>
  <unicode hex="00D4"/>
  <outline>
    <contour>
      <point x="36" y="619" type="curve" smooth="yes"/>
      <point x="36" y="1004"/>
      <point x="285" y="1269"/>
      <point x="699" y="1269" type="curve" smooth="yes"/>
      <point x="1060" y="1269"/>
      <point x="1318" y="1092"/>
      <point x="1318" y="613" type="curve" smooth="yes"/>
      <point x="1318" y="196"/>
      <point x="1027" y="-27"/>
      <point x="659" y="-27" type="curve" smooth="yes"/>
      <point x="230" y="-27"/>
      <point x="36" y="239"/>
    </contour>
    <contour>
      <point x="444" y="671" type="curve" smooth="yes"/>
      <point x="444" y="526"/>
      <point x="488" y="163"/>
      <point x="712" y="163" type="curve" smooth="yes"/>
      <point x="837" y="163"/>
      <point x="904" y="287"/>
      <point x="904" y="573" type="curve" smooth="yes"/>
      <point x="904" y="720"/>
      <point x="871" y="1094"/>
      <point x="653" y="1094" type="curve" smooth="yes"/>
      <point x="500" y="1094"/>
      <point x="444" y="933"/>
    </contour>
    <contour>
      <point x="372" y="1318" type="line"/>
      <point x="525" y="1573" type="line"/>
      <point x="850" y="1573" type="line"/>
      <point x="1004" y="1318" type="line"/>
      <point x="751" y="1309" type="line"/>
      <point x="687" y="1430" type="line"/>
      <point x="673" y="1430" type="line"/>
      <point x="605" y="1308" type="line"/>
    </contour>
  </outline>
</glyph>
<glyph name="Otilde" format="1">
  <advance width="1355"/>
  <unicode hex="00D5"/>
  <outline>
    <contour>
      <point x="36" y="619" type="curve" smooth="yes"/>
      <point x="36" y="1004"/>
      <point x="285" y="1269"/>
      <point x="699" y="1269" type="curve" smooth="yes"/>
      <point x="1060" y="1269"/>
      <point x="1318" y="1092"/>
      <point x="1318" y="613" type="curve" smooth="yes"/>
      <point x="1318" y="196"/>
      <point x="1027" y="-27"/>
      <point x="659" y="-27" type="curve" smooth="yes"/>
      <point x="230" y="-27"/>
      <point x="36" y="239"/>
    </contour>
    <contour>
      <point x="444" y="671" type="curve" smooth="yes"/>
      <point x="444" y="526"/>
      <point x="488" y="163"/>
      <point x="712" y="163" type="curve" smooth="yes"/>
      <point x="837" y="163"/>
      <point x="904" y="287"/>
      <point x="904" y="573" type="curve" smooth="yes"/>
      <point x="904" y="720"/>
      <point x="871" y="1094"/>
      <point x="653" y="1094" type="curve" smooth="yes"/>
      <point x="500" y="1094"/>
      <point x="444" y="933"/>
    </contour>
    <contour>
      <point x="350" y="1319" type="line"/>
      <point x="357" y="1593"/>
      <point x="489" y="1627"/>
      <point x="655" y="1576" type="curve" smooth="yes"/>
      <point x="725" y="1554" type="line" smooth="yes"/>
      <point x="815" y="1526"/>
      <point x="857" y="1535"/>
      <point x="876" y="1604" type="curve"/>
      <point x="991" y="1593" type="line"/>
      <point x="977" y="1336"/>
      <point x="875" y="1279"/>
      <point x="697" y="1334" type="curve" smooth="yes"/>
      <point x="631" y="1354" type="line" smooth="yes"/>
      <point x="516" y="1389"/>
      <point x="490" y="1372"/>
      <point x="467" y="1308" type="curve"/>
    </contour>
  </outline>
</glyph>
<glyph name="Odieresis" format="1">
  <advance width="1355"/>
  <unicode hex="00D6"/>
  <outline>
    <contour>
      <point x="36" y="619" type="curve" smooth="yes"/>
      <point x="36" y="1004"/>
      <point x="285" y="1269"/>
      <point x="699" y="1269" type="curve" smooth="yes"/>
      <point x="1060" y="1269"/>
      <point x="1318" y="1092"/>
      <point x="1318" y="613" type="curve" smooth="yes"/>
      <point x="1318" y="196"/>
      <point x="1027" y="-27"/>
      <point x="659" y="-27" type="curve" smooth="yes"/>
      <point x="230" y="-27"/>
      <point x="36" y="239"/>
    </contour>
    <contour>
      <point x="444" y="671" type="curve" smooth="yes"/>
      <point x="444" y="526"/>
      <point x="488" y="163"/>
      <point x="712" y="163" type="curve" smooth="yes"/>
      <point x="837" y="163"/>
      <point x="904" y="287"/>
      <point x="904" y="573" type="curve" smooth="yes"/>
      <point x="904" y="720"/>
      <point x="871" y="1094"/>
      <point x="653" y="1094" type="curve" smooth="yes"/>
      <point x="500" y="1094"/>
      <point x="444" y="933"/>
    </contour>
    <contour>
      <point x="686.6" y="1417.9" type="curve" smooth="yes"/>
      <point x="686.6" y="1463.4"/>
      <point x="716.96" y="1525"/>
      <point x="824.54" y="1525" type="curve" smooth="yes"/>
      <point x="938.72" y="1525"/>
      <point x="968.42" y="1464.8"/>
      <point x="968.42" y="1420" type="curve" smooth="yes"/>
      <point x="968.42" y="1360.5"/>
      <point x="934.76" y="1310.8"/>
      <point x="823.88" y="1310.8" type="curve" smooth="yes"/>
      <point x="709.04" y="1310.8"/>
      <point x="686.6" y="1366.8"/>
    </contour>
    <contour>
      <point x="377.6" y="1417.9" type="curve" smooth="yes"/>
      <point x="377.6" y="1463.4"/>
      <point x="407.96" y="1525"/>
      <point x="515.54" y="1525" type="curve" smooth="yes"/>
      <point x="629.72" y="1525"/>
      <point x="659.42" y="1464.8"/>
      <point x="659.42" y="1420" type="curve" smooth="yes"/>
      <point x="659.42" y="1360.5"/>
      <point x="625.76" y="1310.8"/>
      <point x="514.88" y="1310.8" type="curve" smooth="yes"/>
      <point x="400.04" y="1310.8"/>
      <point x="377.6" y="1366.8"/>
    </contour>
  </outline>
</glyph>
<glyph name="multiply" format="1">
  <advance width="659"/>
  <unicode hex="00D7"/>
  <outline>
    <contour>
      <point x="43" y="616" type="line"/>
      <point x="191" y="732" type="line"/>
      <point x="335" y="576" type="line"/>
      <point x="504" y="747" type="line"/>
      <point x="618" y="597" type="line"/>
      <point x="452" y="456" type="line"/>
      <point x="610" y="298" type="line"/>
      <point x="464" y="176" type="line"/>
      <point x="325" y="343" type="line"/>
      <point x="170" y="178" type="line"/>
      <point x="51" y="328" type="line"/>
      <point x="206" y="462" type="line"/>
    </contour>
  </outline>
</glyph>
<glyph name="Oslash" format="1">
  <advance width="1355"/>
  <unicode hex="00D8"/>
  <outline>
    <contour>
      <point x="36" y="619" type="curve" smooth="yes"/>
      <point x="36" y="1004"/>
      <point x="285" y="1269"/>
      <point x="699" y="1269" type="curve" smooth="yes"/>
      <point x="1060" y="1269"/>
      <point x="1318" y="1092"/>
      <point x="1318" y="613" type="curve" smooth="yes"/>
      <point x="1318" y="196"/>
      <point x="1027" y="-27"/>
      <point x="659" y="-27" type="curve" smooth="yes"/>
      <point x="230" y="-27"/>
      <point x="36" y="239"/>
    </contour>
    <contour>
      <point x="-14" y="64" type="line"/>
      <point x="191" y="290" type="line"/>
      <point x="364" y="322" type="line"/>
      <point x="915" y="1012" type="line"/>
      <point x="933" y="1112" type="line"/>
      <point x="1097" y="1262" type="line"/>
      <point x="1340" y="1211" type="line"/>
      <point x="1069" y="941" type="line"/>
      <point x="956" y="922" type="line"/>
      <point x="406" y="223" type="line"/>
      <point x="335" y="116" type="line"/>
      <point x="232" y="1" type="line"/>
    </contour>
    <contour>
      <point x="444" y="671" type="curve" smooth="yes"/>
      <point x="444" y="526"/>
      <point x="488" y="163"/>
      <point x="712" y="163" type="curve" smooth="yes"/>
      <point x="837" y="163"/>
      <point x="904" y="287"/>
      <point x="904" y="573" type="curve" smooth="yes"/>
      <point x="904" y="720"/>
      <point x="871" y="1094"/>
      <point x="653" y="1094" type="curve" smooth="yes"/>
      <point x="500" y="1094"/>
      <point x="444" y="933"/>
    </contour>
  </outline>
</glyph>
<glyph name="Ugrave" format="1">
  <advance width="1563"/>
  <unicode hex="00D9"/>
  <outline>
    <contour>
      <point x="34" y="1094" type="line"/>
      <point x="63" y="1244" type="line"/>
      <point x="783" y="1244" type="line"/>
      <point x="761" y="1094" type="line"/>
      <point x="596" y="1027" type="line"/>
      <point x="596" y="501" type="line" smooth="yes"/>
      <point x="596" y="280"/>
      <point x="705" y="193"/>
      <point x="862" y="193" type="curve" smooth="yes"/>
      <point x="1003" y="193"/>
      <point x="1099" y="281"/>
      <point x="1099" y="487" type="curve" smooth="yes"/>
      <point x="1099" y="1020" type="line"/>
      <point x="923" y="1094" type="line"/>
      <point x="943" y="1244" type="line"/>
      <point x="1528" y="1244" type="line"/>
      <point x="1511" y="1094" type="line"/>
      <point x="1346" y="1027" type="line"/>
      <point x="1342" y="555" type="line" smooth="yes"/>
      <point x="1338" y="152"/>
      <point x="1143" y="-27"/>
      <point x="791" y="-27" type="curve" smooth="yes"/>
      <point x="567" y="-27"/>
      <point x="224" y="-5"/>
      <point x="224" y="474" type="curve" smooth="yes"/>
      <point x="224" y="1020" type="line"/>
    </contour>
    <contour>
      <point x="503" y="1632" type="line"/>
      <point x="764" y="1311" type="line"/>
      <point x="998" y="1337" type="line"/>
      <point x="853" y="1642" type="line"/>
    </contour>
  </outline>
</glyph>
<glyph name="Udieresis" format="1">
  <advance width="1563"/>
  <unicode hex="00DC"/>
  <outline>
    <contour>
      <point x="34" y="1094" type="line"/>
      <point x="63" y="1244" type="line"/>
      <point x="783" y="1244" type="line"/>
      <point x="761" y="1094" type="line"/>
      <point x="596" y="1027" type="line"/>
      <point x="596" y="501" type="line" smooth="yes"/>
      <point x="596" y="280"/>
      <point x="705" y="193"/>
      <point x="862" y="193" type="curve" smooth="yes"/>
      <point x="1003" y="193"/>
      <point x="1099" y="281"/>
      <point x="1099" y="487" type="curve" smooth="yes"/>
      <point x="1099" y="1020" type="line"/>
      <point x="923" y="1094" type="line"/>
      <point x="943" y="1244" type="line"/>
      <point x="1528" y="1244" type="line"/>
      <point x="1511" y="1094" type="line"/>
      <point x="1346" y="1027" type="line"/>
      <point x="1342" y="555" type="line" smooth="yes"/>
      <point x="1338" y="152"/>
      <point x="1143" y="-27"/>
      <point x="791" y="-27" type="curve" smooth="yes"/>
      <point x="567" y="-27"/>
      <point x="224" y="-5"/>
      <point x="224" y="474" type="curve" smooth="yes"/>
      <point x="224" y="1020" type="line"/>
    </contour>
    <contour>
      <point x="871.6" y="1417.9" type="curve" smooth="yes"/>
      <point x="871.6" y="1463.4"/>
      <point x="901.96" y="1525"/>
      <point x="1009.54" y="1525" type="curve" smooth="yes"/>
      <point x="1123.72" y="1525"/>
      <point x="1153.42" y="1464.8"/>
      <point x="1153.42" y="1420" type="curve" smooth="yes"/>
      <point x="1153.42" y="1360.5"/>
      <point x="1119.76" y="1310.8"/>
      <point x="1008.88" y="1310.8" type="curve" smooth="yes"/>
      <point x="894.04" y="1310.8"/>
      <point x="871.6" y="1366.8"/>
    </contour>
    <contour>
      <point x="562.6" y="1417.9" type="curve" smooth="yes"/>
      <point x="562.6" y="1463.4"/>
      <point x="592.96" y="1525"/>
      <point x="700.54" y="1525" type="curve" smooth="yes"/>
      <point x="814.72" y="1525"/>
      <point x="844.42" y="1464.8"/>
      <point x="844.42" y="1420" type="curve" smooth="yes"/>
      <point x="844.42" y="1360.5"/>
      <point x="810.76" y="1310.8"/>
      <point x="699.88" y="1310.8" type="curve" smooth="yes"/>
      <point x="585.04" y="1310.8"/>
      <point x="562.6" y="1366.8"/>
    </contour>
  </outline>
</glyph>
<glyph name="Yacute" format="1">
  <advance width="1357"/>
  <unicode hex="00DD"/>
  <outline>
    <contour>
      <point x="34" y="1089" type="line"/>
      <point x="66" y="1245" type="line"/>
      <point x="727" y="1245" type="line"/>
      <point x="699" y="1089" type="line"/>
      <point x="624" y="1028" type="line"/>
      <point x="773" y="739" type="line"/>
      <point x="924" y="1025" type="line"/>
      <point x="825" y="1087" type="line"/>
      <point x="849" y="1244" type="line"/>
      <point x="1322" y="1244" type="line"/>
      <point x="1298" y="1087" type="line"/>
      <point x="1184" y="1027" type="line"/>
      <point x="868" y="498" type="line"/>
      <point x="868" y="221" type="line"/>
      <point x="1035" y="140" type="line"/>
      <point x="1022" y="0" type="line"/>
      <point x="320" y="0" type="line"/>
      <point x="338" y="138" type="line"/>
      <point x="497" y="217" type="line"/>
      <point x="497" y="485" type="line"/>
      <point x="168" y="1027" type="line"/>
    </contour>
    <contour>
      <point x="621" y="1336" type="line"/>
      <point x="766" y="1641" type="line"/>
      <point x="1116" y="1631" type="line"/>
      <point x="855" y="1310" type="line"/>
    </contour>
  </outline>
</glyph>
<glyph name="atilde" format="1">
  <advance width="1176"/>
  <unicode hex="00E3"/>
  <outline>
    <contour>
      <point x="33" y="0" type="line"/>
      <point x="52" y="138" type="line"/>
      <point x="153" y="241" type="line"/>
      <point x="441" y="934" type="line"/>
      <point x="778" y="999" type="line"/>
      <point x="1055" y="238" type="line"/>
      <point x="1143" y="145" type="line"/>
      <point x="1131" y="-2" type="line"/>
      <point x="579" y="-2" type="line"/>
      <point x="595" y="136" type="line"/>
      <point x="671" y="240" type="line"/>
      <point x="535" y="682" type="line"/>
      <point x="384" y="240" type="line"/>
      <point x="483" y="148" type="line"/>
      <point x="468" y="0" type="line"/>
    </contour>
    <contour>
      <point x="291" y="342" type="line"/>
      <point x="361" y="461" type="line"/>
      <point x="692" y="461" type="line"/>
      <point x="763" y="342" type="line"/>
    </contour>
    <contour>
      <point x="299" y="1042" type="line"/>
      <point x="306" y="1316"/>
      <point x="438" y="1350"/>
      <point x="604" y="1299" type="curve" smooth="yes"/>
      <point x="674" y="1277" type="line" smooth="yes"/>
      <point x="764" y="1249"/>
      <point x="806" y="1258"/>
      <point x="825" y="1327" type="curve"/>
      <point x="940" y="1316" type="line"/>
      <point x="926" y="1059"/>
      <point x="824" y="1002"/>
      <point x="646" y="1057" type="curve" smooth="yes"/>
      <point x="580" y="1077" type="line" smooth="yes"/>
      <point x="465" y="1112"/>
      <point x="439" y="1095"/>
      <point x="416" y="1031" type="curve"/>
    </contour>
  </outline>
</glyph>
<glyph name="edieresis" format="1">
  <advance width="1079"/>
  <unicode hex="00EB"/>
  <outline>
    <contour>
      <point x="33" y="835" type="line"/>
      <point x="52" y="979" type="line"/>
      <point x="1045" y="979" type="line"/>
      <point x="1015" y="611" type="line"/>
      <point x="844" y="637" type="line"/>
      <point x="761" y="807" type="line"/>
      <point x="536" y="807" type="line"/>
      <point x="536" y="559" type="line"/>
      <point x="661" y="575" type="line"/>
      <point x="688" y="578" type="line"/>
      <point x="825" y="596" type="line"/>
      <point x="792" y="390" type="line"/>
      <point x="679" y="406" type="line"/>
      <point x="649" y="411" type="line"/>
      <point x="536" y="427" type="line"/>
      <point x="536" y="203" type="line"/>
      <point x="739" y="180" type="line"/>
      <point x="875" y="378" type="line"/>
      <point x="1040" y="361" type="line"/>
      <point x="1010" y="0" type="line"/>
      <point x="49" y="0" type="line"/>
      <point x="59" y="158" type="line"/>
      <point x="163" y="217" type="line"/>
      <point x="163" y="765" type="line"/>
    </contour>
    <contour>
      <point x="279" y="1148" type="curve" smooth="yes"/>
      <point x="279" y="1194"/>
      <point x="309" y="1255"/>
      <point x="417" y="1255" type="curve" smooth="yes"/>
      <point x="531" y="1255"/>
      <point x="560" y="1195"/>
      <point x="560" y="1150" type="curve" smooth="yes"/>
      <point x="560" y="1090"/>
      <point x="527" y="1041"/>
      <point x="416" y="1041" type="curve" smooth="yes"/>
      <point x="301" y="1041"/>
      <point x="279" y="1097"/>
    </contour>
    <contour>
      <point x="588" y="1148" type="curve" smooth="yes"/>
      <point x="588" y="1194"/>
      <point x="618" y="1255"/>
      <point x="726" y="1255" type="curve" smooth="yes"/>
      <point x="840" y="1255"/>
      <point x="869" y="1195"/>
      <point x="869" y="1150" type="curve" smooth="yes"/>
      <point x="869" y="1090"/>
      <point x="836" y="1041"/>
      <point x="725" y="1041" type="curve" smooth="yes"/>
      <point x="610" y="1041"/>
      <point x="588" y="1097"/>
    </contour>
  </outline>
</glyph>
<glyph name="iacute" format="1">
  <advance width="693"/>
  <unicode hex="00ED"/>
  <outline>
    <contour>
      <point x="33" y="829" type="line"/>
      <point x="53" y="979" type="line"/>
      <point x="660" y="979" type="line"/>
      <point x="644" y="819" type="line"/>
      <point x="525" y="752" type="line"/>
      <point x="525" y="223" type="line"/>
      <point x="645" y="160" type="line"/>
      <point x="632" y="0" type="line"/>
      <point x="35" y="0" type="line"/>
      <point x="45" y="142" type="line"/>
      <point x="161" y="221" type="line"/>
      <point x="161" y="755" type="line"/>
    </contour>
    <contour>
      <point x="202" y="1065" type="line"/>
      <point x="348" y="1370" type="line"/>
      <point x="698" y="1360" type="line"/>
      <point x="436" y="1039" type="line"/>
    </contour>
  </outline>
</glyph>
<glyph name="icircumflex" format="1">
  <advance width="693"/>
  <unicode hex="00EE"/>
  <outline>
    <contour>
      <point x="33" y="829" type="line"/>
      <point x="53" y="979" type="line"/>
      <point x="660" y="979" type="line"/>
      <point x="644" y="819" type="line"/>
      <point x="525" y="752" type="line"/>
      <point x="525" y="223" type="line"/>
      <point x="645" y="160" type="line"/>
      <point x="632" y="0" type="line"/>
      <point x="35" y="0" type="line"/>
      <point x="45" y="142" type="line"/>
      <point x="161" y="221" type="line"/>
      <point x="161" y="755" type="line"/>
    </contour>
    <contour>
      <point x="38" y="1051" type="line"/>
      <point x="192" y="1306" type="line"/>
      <point x="516" y="1306" type="line"/>
      <point x="670" y="1051" type="line"/>
      <point x="418" y="1042" type="line"/>
      <point x="354" y="1163" type="line"/>
      <point x="340" y="1163" type="line"/>
      <point x="272" y="1041" type="line"/>
    </contour>
  </outline>
</glyph>
<glyph name="idieresis" format="1">
  <advance width="693"/>
  <unicode hex="00EF"/>
  <outline>
    <contour>
      <point x="33" y="829" type="line"/>
      <point x="53" y="979" type="line"/>
      <point x="660" y="979" type="line"/>
      <point x="644" y="819" type="line"/>
      <point x="525" y="752" type="line"/>
      <point x="525" y="223" type="line"/>
      <point x="645" y="160" type="line"/>
      <point x="632" y="0" type="line"/>
      <point x="35" y="0" type="line"/>
      <point x="45" y="142" type="line"/>
      <point x="161" y="221" type="line"/>
      <point x="161" y="755" type="line"/>
    </contour>
    <contour>
      <point x="61" y="1146" type="curve" smooth="yes"/>
      <point x="61" y="1192"/>
      <point x="91" y="1253"/>
      <point x="199" y="1253" type="curve" smooth="yes"/>
      <point x="313" y="1253"/>
      <point x="343" y="1193"/>
      <point x="343" y="1148" type="curve" smooth="yes"/>
      <point x="343" y="1088"/>
      <point x="309" y="1039"/>
      <point x="198" y="1039" type="curve" smooth="yes"/>
      <point x="83" y="1039"/>
      <point x="61" y="1095"/>
    </contour>
    <contour>
      <point x="370" y="1146" type="curve" smooth="yes"/>
      <point x="370" y="1192"/>
      <point x="400" y="1253"/>
      <point x="508" y="1253" type="curve" smooth="yes"/>
      <point x="622" y="1253"/>
      <point x="652" y="1193"/>
      <point x="652" y="1148" type="curve" smooth="yes"/>
      <point x="652" y="1088"/>
      <point x="618" y="1039"/>
      <point x="507" y="1039" type="curve" smooth="yes"/>
      <point x="392" y="1039"/>
      <point x="370" y="1095"/>
    </contour>
  </outline>
</glyph>
<glyph name="eth" format="1">
  <advance width="1183"/>
  <unicode hex="00F0"/>
  <outline>
    <contour>
      <point x="34" y="0" type="line"/>
      <point x="47" y="158" type="line"/>
      <point x="167" y="241" type="line"/>
      <point x="167" y="742" type="line"/>
      <point x="54" y="788" type="line"/>
      <point x="61" y="945" type="line"/>
      <point x="169" y="970"/>
      <point x="391" y="997"/>
      <point x="574" y="997" type="curve" smooth="yes"/>
      <point x="1000" y="997"/>
      <point x="1150" y="781"/>
      <point x="1150" y="520" type="curve" smooth="yes"/>
      <point x="1150" y="219"/>
      <point x="931" y="0"/>
      <point x="562" y="0" type="curve" smooth="yes"/>
    </contour>
    <contour>
      <point x="42" y="364" type="line"/>
      <point x="57" y="547" type="line"/>
      <point x="679" y="594" type="line"/>
      <point x="669" y="445" type="line"/>
    </contour>
    <contour>
      <point x="537" y="202" type="line"/>
      <point x="572" y="202" type="line" smooth="yes"/>
      <point x="763" y="202"/>
      <point x="784" y="393"/>
      <point x="784" y="497" type="curve" smooth="yes"/>
      <point x="784" y="624"/>
      <point x="721" y="796"/>
      <point x="555" y="796" type="curve" smooth="yes"/>
      <point x="548" y="796"/>
      <point x="542" y="796"/>
      <point x="537" y="795" type="curve"/>
    </contour>
  </outline>
</glyph>
<glyph name="ntilde" format="1">
  <advance width="1225"/>
  <unicode hex="00F1"/>
  <outline>
    <contour>
      <point x="37" y="822" type="line"/>
      <point x="51" y="979" type="line"/>
      <point x="511" y="979" type="line"/>
      <point x="865" y="453" type="line"/>
      <point x="865" y="755" type="line"/>
      <point x="727" y="829" type="line"/>
      <point x="751" y="979" type="line"/>
      <point x="1192" y="979" type="line"/>
      <point x="1167" y="829" type="line"/>
      <point x="1079" y="762" type="line"/>
      <point x="1079" y="15" type="line"/>
      <point x="752" y="-29" type="line"/>
      <point x="387" y="539" type="line"/>
      <point x="387" y="211" type="line"/>
      <point x="517" y="148" type="line"/>
      <point x="504" y="0" type="line"/>
      <point x="33" y="0" type="line"/>
      <point x="43" y="138" type="line"/>
      <point x="164" y="217" type="line"/>
      <point x="164" y="738" type="line"/>
    </contour>
    <contour>
      <point x="278" y="1043" type="line"/>
      <point x="285" y="1317"/>
      <point x="417" y="1351"/>
      <point x="583" y="1300" type="curve" smooth="yes"/>
      <point x="653" y="1278" type="line" smooth="yes"/>
      <point x="743" y="1250"/>
      <point x="785" y="1259"/>
      <point x="804" y="1328" type="curve"/>
      <point x="919" y="1317" type="line"/>
      <point x="905" y="1060"/>
      <point x="803" y="1003"/>
      <point x="625" y="1058" type="curve" smooth="yes"/>
      <point x="559" y="1078" type="line" smooth="yes"/>
      <point x="444" y="1113"/>
      <point x="418" y="1096"/>
      <point x="395" y="1032" type="curve"/>
    </contour>
  </outline>
</glyph>
<glyph name="odieresis" format="1">
  <advance width="1135"/>
  <unicode hex="00F6"/>
  <outline>
    <contour>
      <point x="35" y="469" type="curve" smooth="yes"/>
      <point x="35" y="782"/>
      <point x="237" y="997"/>
      <point x="573" y="997" type="curve" smooth="yes"/>
      <point x="881" y="997"/>
      <point x="1100" y="864"/>
      <point x="1100" y="504" type="curve" smooth="yes"/>
      <point x="1100" y="158"/>
      <point x="850" y="-27"/>
      <point x="533" y="-27" type="curve" smooth="yes"/>
      <point x="190" y="-27"/>
      <point x="35" y="177"/>
    </contour>
    <contour>
      <point x="438" y="531" type="curve" smooth="yes"/>
      <point x="438" y="426"/>
      <point x="460" y="163"/>
      <point x="571" y="163" type="curve" smooth="yes"/>
      <point x="643" y="163"/>
      <point x="681" y="263"/>
      <point x="681" y="494" type="curve" smooth="yes"/>
      <point x="681" y="627"/>
      <point x="641" y="822"/>
      <point x="542" y="822" type="curve" smooth="yes"/>
      <point x="466" y="822"/>
      <point x="438" y="711"/>
    </contour>
    <contour>
      <point x="268" y="1144" type="curve" smooth="yes"/>
      <point x="268" y="1190"/>
      <point x="298" y="1251"/>
      <point x="406" y="1251" type="curve" smooth="yes"/>
      <point x="520" y="1251"/>
      <point x="549" y="1191"/>
      <point x="549" y="1146" type="curve" smooth="yes"/>
      <point x="549" y="1086"/>
      <point x="516" y="1037"/>
      <point x="405" y="1037" type="curve" smooth="yes"/>
      <point x="290" y="1037"/>
      <point x="268" y="1093"/>
    </contour>
    <contour>
      <point x="577" y="1144" type="curve" smooth="yes"/>
      <point x="577" y="1190"/>
      <point x="607" y="1251"/>
      <point x="715" y="1251" type="curve" smooth="yes"/>
      <point x="829" y="1251"/>
      <point x="858" y="1191"/>
      <point x="858" y="1146" type="curve" smooth="yes"/>
      <point x="858" y="1086"/>
      <point x="825" y="1037"/>
      <point x="714" y="1037" type="curve" smooth="yes"/>
      <point x="599" y="1037"/>
      <point x="577" y="1093"/>
    </contour>
  </outline>
</glyph>
<glyph name="divide" format="1">
  <advance width="910"/>
  <unicode hex="00F7"/>
  <outline>
    <contour>
      <point x="45" y="411" type="line"/>
      <point x="57" y="597" type="line"/>
      <point x="868" y="597" type="line"/>
      <point x="859" y="411" type="line"/>
    </contour>
    <contour>
      <point x="236" y="218" type="curve" smooth="yes"/>
      <point x="236" y="283"/>
      <point x="282" y="371"/>
      <point x="445" y="371" type="curve" smooth="yes"/>
      <point x="618" y="371"/>
      <point x="663" y="285"/>
      <point x="663" y="221" type="curve" smooth="yes"/>
      <point x="663" y="136"/>
      <point x="612" y="65"/>
      <point x="444" y="65" type="curve" smooth="yes"/>
      <point x="270" y="65"/>
      <point x="236" y="145"/>
    </contour>
    <contour>
      <point x="236" y="781" type="curve" smooth="yes"/>
      <point x="236" y="846"/>
      <point x="282" y="934"/>
      <point x="445" y="934" type="curve" smooth="yes"/>
      <point x="618" y="934"/>
      <point x="663" y="848"/>
      <point x="663" y="784" type="curve" smooth="yes"/>
      <point x="663" y="699"/>
      <point x="612" y="628"/>
      <point x="444" y="628" type="curve" smooth="yes"/>
      <point x="270" y="628"/>
      <point x="236" y="708"/>
    </contour>
  </outline>
</glyph>
<glyph name="oslash" format="1">
  <advance width="1227"/>
  <unicode hex="00F8"/>
  <outline>
    <contour>
      <point x="83" y="469" type="curve" smooth="yes"/>
      <point x="83" y="782"/>
      <point x="285" y="997"/>
      <point x="621" y="997" type="curve" smooth="yes"/>
      <point x="929" y="997"/>
      <point x="1148" y="864"/>
      <point x="1148" y="504" type="curve" smooth="yes"/>
      <point x="1148" y="158"/>
      <point x="898" y="-27"/>
      <point x="581" y="-27" type="curve" smooth="yes"/>
      <point x="238" y="-27"/>
      <point x="83" y="177"/>
    </contour>
    <contour>
      <point x="32" y="65" type="line"/>
      <point x="216" y="221" type="line"/>
      <point x="308" y="247" type="line"/>
      <point x="798" y="737" type="line"/>
      <point x="838" y="845" type="line"/>
      <point x="1011" y="965" type="line"/>
      <point x="1196" y="900" type="line"/>
      <point x="999" y="757" type="line"/>
      <point x="896" y="701" type="line"/>
      <point x="384" y="183" type="line"/>
      <point x="355" y="105" type="line"/>
      <point x="220" y="1" type="line"/>
    </contour>
    <contour>
      <point x="486" y="531" type="curve" smooth="yes"/>
      <point x="486" y="426"/>
      <point x="508" y="163"/>
      <point x="619" y="163" type="curve" smooth="yes"/>
      <point x="691" y="163"/>
      <point x="729" y="263"/>
      <point x="729" y="494" type="curve" smooth="yes"/>
      <point x="729" y="627"/>
      <point x="689" y="822"/>
      <point x="590" y="822" type="curve" smooth="yes"/>
      <point x="514" y="822"/>
      <point x="486" y="711"/>
    </contour>
  </outline>
</glyph>
<glyph name="ugrave" format="1">
  <advance width="1227"/>
  <unicode hex="00F9"/>
  <outline>
    <contour>
      <point x="33" y="829" type="line"/>
      <point x="62" y="979" type="line"/>
      <point x="662" y="979" type="line"/>
      <point x="640" y="829" type="line"/>
      <point x="545" y="762" type="line"/>
      <point x="545" y="346" type="line" smooth="yes"/>
      <point x="545" y="236"/>
      <point x="602" y="193"/>
      <point x="684" y="193" type="curve" smooth="yes"/>
      <point x="762" y="193"/>
      <point x="815" y="235"/>
      <point x="815" y="332" type="curve" smooth="yes"/>
      <point x="815" y="755" type="line"/>
      <point x="709" y="829" type="line"/>
      <point x="729" y="979" type="line"/>
      <point x="1194" y="979" type="line"/>
      <point x="1177" y="829" type="line"/>
      <point x="1062" y="762" type="line"/>
      <point x="1058" y="360" type="line" smooth="yes"/>
      <point x="1052" y="92"/>
      <point x="904" y="-27"/>
      <point x="633" y="-27" type="curve" smooth="yes"/>
      <point x="451" y="-27"/>
      <point x="173" y="-11"/>
      <point x="173" y="329" type="curve" smooth="yes"/>
      <point x="173" y="755" type="line"/>
    </contour>
    <contour>
      <point x="304" y="1358" type="line"/>
      <point x="654" y="1368" type="line"/>
      <point x="799" y="1063" type="line"/>
      <point x="565" y="1037" type="line"/>
    </contour>
  </outline>
</glyph>
<glyph name="udieresis" format="1">
  <advance width="1227"/>
  <unicode hex="00FC"/>
  <outline>
    <contour>
      <point x="33" y="829" type="line"/>
      <point x="62" y="979" type="line"/>
      <point x="662" y="979" type="line"/>
      <point x="640" y="829" type="line"/>
      <point x="545" y="762" type="line"/>
      <point x="545" y="346" type="line" smooth="yes"/>
      <point x="545" y="236"/>
      <point x="602" y="193"/>
      <point x="684" y="193" type="curve" smooth="yes"/>
      <point x="762" y="193"/>
      <point x="815" y="235"/>
      <point x="815" y="332" type="curve" smooth="yes"/>
      <point x="815" y="755" type="line"/>
      <point x="709" y="829" type="line"/>
      <point x="729" y="979" type="line"/>
      <point x="1194" y="979" type="line"/>
      <point x="1177" y="829" type="line"/>
      <point x="1062" y="762" type="line"/>
      <point x="1058" y="360" type="line" smooth="yes"/>
      <point x="1052" y="92"/>
      <point x="904" y="-27"/>
      <point x="633" y="-27" type="curve" smooth="yes"/>
      <point x="451" y="-27"/>
      <point x="173" y="-11"/>
      <point x="173" y="329" type="curve" smooth="yes"/>
      <point x="173" y="755" type="line"/>
    </contour>
    <contour>
      <point x="352" y="1146" type="curve" smooth="yes"/>
      <point x="352" y="1192"/>
      <point x="382" y="1253"/>
      <point x="490" y="1253" type="curve" smooth="yes"/>
      <point x="604" y="1253"/>
      <point x="633" y="1193"/>
      <point x="633" y="1148" type="curve" smooth="yes"/>
      <point x="633" y="1088"/>
      <point x="600" y="1039"/>
      <point x="489" y="1039" type="curve" smooth="yes"/>
      <point x="374" y="1039"/>
      <point x="352" y="1095"/>
    </contour>
    <contour>
      <point x="661" y="1146" type="curve" smooth="yes"/>
      <point x="661" y="1192"/>
      <point x="691" y="1253"/>
      <point x="799" y="1253" type="curve" smooth="yes"/>
      <point x="913" y="1253"/>
      <point x="942" y="1193"/>
      <point x="942" y="1148" type="curve" smooth="yes"/>
      <point x="942" y="1088"/>
      <point x="909" y="1039"/>
      <point x="798" y="1039" type="curve" smooth="yes"/>
      <point x="683" y="1039"/>
      <point x="661" y="1095"/>
    </contour>
  </outline>
</glyph>
<glyph name="ydieresis" format="1">
  <advance width="1067"/>
  <unicode hex="00FF"/>
  <outline>
    <contour>
      <point x="33" y="823" type="line"/>
      <point x="63" y="979" type="line"/>
      <point x="569" y="979" type="line"/>
      <point x="543" y="823" type="line"/>
      <point x="489" y="762" type="line"/>
      <point x="578" y="552" type="line"/>
      <point x="679" y="759" type="line"/>
      <point x="629" y="821" type="line"/>
      <point x="651" y="978" type="line"/>
      <point x="1034" y="978" type="line"/>
      <point x="1012" y="821" type="line"/>
      <point x="939" y="761" type="line"/>
      <point x="709" y="359" type="line"/>
      <point x="709" y="221" type="line"/>
      <point x="826" y="140" type="line"/>
      <point x="813" y="0" type="line"/>
      <point x="211" y="0" type="line"/>
      <point x="229" y="138" type="line"/>
      <point x="338" y="217" type="line"/>
      <point x="338" y="346" type="line"/>
      <point x="103" y="761" type="line"/>
    </contour>
    <contour>
      <point x="277" y="1144" type="curve" smooth="yes"/>
      <point x="277" y="1190"/>
      <point x="307" y="1251"/>
      <point x="415" y="1251" type="curve" smooth="yes"/>
      <point x="529" y="1251"/>
      <point x="558" y="1191"/>
      <point x="558" y="1146" type="curve" smooth="yes"/>
      <point x="558" y="1086"/>
      <point x="525" y="1037"/>
      <point x="414" y="1037" type="curve" smooth="yes"/>
      <point x="299" y="1037"/>
      <point x="277" y="1093"/>
    </contour>
    <contour>
      <point x="586" y="1144" type="curve" smooth="yes"/>
      <point x="586" y="1190"/>
      <point x="616" y="1251"/>
      <point x="724" y="1251" type="curve" smooth="yes"/>
      <point x="838" y="1251"/>
      <point x="867" y="1191"/>
      <point x="867" y="1146" type="curve" smooth="yes"/>
      <point x="867" y="1086"/>
      <point x="834" y="1037"/>
      <point x="723" y="1037" type="curve" smooth="yes"/>
      <point x="608" y="1037"/>
      <point x="586" y="1093"/>
    </contour>
  </outline>
</glyph>
<glyph name="dotaccent" format="1">
  <advance width="579"/>
  <unicode hex="02D9"/>
  <outline>
    <contour>
      <point x="76" y="1473" type="curve" smooth="yes"/>
      <point x="76" y="1538"/>
      <point x="122" y="1626"/>
      <point x="285" y="1626" type="curve" smooth="yes"/>
      <point x="458" y="1626"/>
      <point x="503" y="1540"/>
      <point x="503" y="1476" type="curve" smooth="yes"/>
      <point x="503" y="1391"/>
      <point x="452" y="1320"/>
      <point x="284" y="1320" type="curve" smooth="yes"/>
      <point x="110" y="1320"/>
      <point x="76" y="1400"/>
    </contour>
  </outline>
</glyph>
<glyph name="ring" format="1">
  <advance width="700"/>
  <unicode hex="02DA"/>
  <outline>
    <contour>
      <point x="66" y="1468" type="curve" smooth="yes"/>
      <point x="66" y="1562"/>
      <point x="148" y="1641"/>
      <point x="350" y="1641" type="curve" smooth="yes"/>
      <point x="552" y="1641"/>
      <point x="635" y="1581"/>
      <point x="635" y="1477" type="curve" smooth="yes"/>
      <point x="635" y="1391"/>
      <point x="554" y="1306"/>
      <point x="342" y="1306" type="curve" smooth="yes"/>
      <point x="137" y="1306"/>
      <point x="66" y="1369"/>
    </contour>
    <contour>
      <point x="277" y="1473" type="curve" smooth="yes"/>
      <point x="277" y="1429"/>
      <point x="310" y="1416"/>
      <point x="345" y="1416" type="curve" smooth="yes"/>
      <point x="377" y="1416"/>
      <point x="412" y="1435"/>
      <point x="412" y="1473" type="curve" smooth="yes"/>
      <point x="412" y="1510"/>
      <point x="376" y="1532"/>
      <point x="339" y="1532" type="curve" smooth="yes"/>
      <point x="309" y="1532"/>
      <point x="277" y="1507"/>
    </contour>
  </outline>
</glyph>
<glyph name="tilde" format="1">
  <advance width="787"/>
  <unicode hex="02DC"/>
  <outline>
    <contour>
      <point x="71" y="1322" type="line"/>
      <point x="78" y="1596"/>
      <point x="210" y="1630"/>
      <point x="376" y="1579" type="curve" smooth="yes"/>
      <point x="446" y="1557" type="line" smooth="yes"/>
      <point x="536" y="1529"/>
      <point x="578" y="1538"/>
      <point x="597" y="1607" type="curve"/>
      <point x="712" y="1596" type="line"/>
      <point x="698" y="1339"/>
      <point x="596" y="1282"/>
      <point x="418" y="1337" type="curve" smooth="yes"/>
      <point x="352" y="1357" type="line" smooth="yes"/>
      <point x="237" y="1392"/>
      <point x="211" y="1375"/>
      <point x="188" y="1311" type="curve"/>
    </contour>
  </outline>
</glyph>
<glyph name="Germandbls" format="1">
  <advance width="1676"/>
  <unicode hex="1E9E"/>
  <outline>
    <contour>
      <point x="42" y="0" type="line"/>
      <point x="55" y="136" type="line"/>
      <point x="209" y="212" type="line"/>
      <point x="209" y="728" type="line" smooth="yes"/>
      <point x="209" y="1105"/>
      <point x="616" y="1268"/>
      <point x="976" y="1268" type="curve" smooth="yes"/>
      <point x="1266" y="1268"/>
      <point x="1587" y="1188"/>
      <point x="1587" y="998" type="curve" smooth="yes"/>
      <point x="1587" y="887"/>
      <point x="1540" y="801"/>
      <point x="1421" y="760" type="curve"/>
      <point x="1301" y="946"/>
      <point x="1170" y="1030"/>
      <point x="1091" y="1030" type="curve" smooth="yes"/>
      <point x="1045" y="1030"/>
      <point x="1017" y="992"/>
      <point x="1017" y="940" type="curve" smooth="yes"/>
      <point x="1017" y="771"/>
      <point x="1634" y="774"/>
      <point x="1634" y="351" type="curve" smooth="yes"/>
      <point x="1634" y="38"/>
      <point x="1274" y="-23"/>
      <point x="1087" y="-23" type="curve" smooth="yes"/>
      <point x="857" y="-23"/>
      <point x="689" y="42"/>
      <point x="635" y="126" type="curve"/>
      <point x="669" y="488" type="line"/>
      <point x="846" y="459" type="line"/>
      <point x="888" y="272" type="line"/>
      <point x="930" y="212"/>
      <point x="1029" y="181"/>
      <point x="1114" y="181" type="curve" smooth="yes"/>
      <point x="1193" y="181"/>
      <point x="1240" y="198"/>
      <point x="1240" y="251" type="curve" smooth="yes"/>
      <point x="1240" y="447"/>
      <point x="643" y="408"/>
      <point x="643" y="797" type="curve" smooth="yes"/>
      <point x="643" y="946"/>
      <point x="755" y="1035"/>
      <point x="836" y="1050" type="curve"/>
      <point x="826" y="1060" type="line"/>
      <point x="810" y="1062"/>
      <point x="796" y="1063"/>
      <point x="782" y="1063" type="curve" smooth="yes"/>
      <point x="618" y="1063"/>
      <point x="569" y="927"/>
      <point x="569" y="751" type="curve" smooth="yes"/>
      <point x="569" y="0" type="line"/>
    </contour>
  </outline>
</glyph>
<glyph name="quoteleft" format="1">
  <advance width="550"/>
  <unicode hex="2018"/>
  <outline>
    <contour>
      <point x="435" y="832" type="curve" smooth="yes"/>
      <point x="436" y="712"/>
      <point x="349" y="650"/>
      <point x="233" y="650" type="curve" smooth="yes"/>
      <point x="53" y="650"/>
      <point x="-10" y="762"/>
      <point x="-10" y="916" type="curve" smooth="yes"/>
      <point x="-10" y="1080"/>
      <point x="110" y="1266"/>
      <point x="384" y="1305" type="curve"/>
      <point x="428" y="1187" type="line"/>
      <point x="312" y="1149"/>
      <point x="263" y="1070"/>
      <point x="263" y="1008" type="curve" smooth="yes"/>
      <point x="263" y="951"/>
      <point x="302" y="918"/>
      <point x="350" y="918" type="curve" smooth="yes"/>
      <point x="367" y="918"/>
      <point x="386" y="922"/>
      <point x="404" y="931" type="curve"/>
      <point x="425" y="896"/>
      <point x="435" y="868"/>
    </contour>
  </outline>
</glyph>
<glyph name="quoteright" format="1">
  <advance width="550"/>
  <unicode hex="2019"/>
  <outline>
    <contour>
      <point x="115" y="1123" type="curve" smooth="yes"/>
      <point x="114" y="1243"/>
      <point x="201" y="1305"/>
      <point x="317" y="1305" type="curve" smooth="yes"/>
      <point x="497" y="1305"/>
      <point x="560" y="1193"/>
      <point x="560" y="1039" type="curve" smooth="yes"/>
      <point x="560" y="875"/>
      <point x="440" y="689"/>
      <point x="166" y="650" type="curve"/>
      <point x="122" y="768" type="line"/>
      <point x="238" y="806"/>
      <point x="287" y="885"/>
      <point x="287" y="947" type="curve" smooth="yes"/>
      <point x="287" y="1004"/>
      <point x="248" y="1037"/>
      <point x="200" y="1037" type="curve" smooth="yes"/>
      <point x="183" y="1037"/>
      <point x="164" y="1033"/>
      <point x="146" y="1024" type="curve"/>
      <point x="125" y="1059"/>
      <point x="115" y="1087"/>
    </contour>
  </outline>
</glyph>
<glyph name="quotesinglbase" format="1">
  <advance width="564"/>
  <unicode hex="201A"/>
  <outline>
    <contour>
      <point x="122" y="96" type="curve" smooth="yes"/>
      <point x="121" y="216"/>
      <point x="208" y="278"/>
      <point x="324" y="278" type="curve" smooth="yes"/>
      <point x="504" y="278"/>
      <point x="567" y="166"/>
      <point x="567" y="12" type="curve" smooth="yes"/>
      <point x="567" y="-152"/>
      <point x="447" y="-338"/>
      <point x="173" y="-377" type="curve"/>
      <point x="129" y="-259" type="line"/>
      <point x="245" y="-221"/>
      <point x="294" y="-142"/>
      <point x="294" y="-80" type="curve" smooth="yes"/>
      <point x="294" y="-23"/>
      <point x="255" y="10"/>
      <point x="207" y="10" type="curve" smooth="yes"/>
      <point x="190" y="10"/>
      <point x="171" y="6"/>
      <point x="153" y="-3" type="curve"/>
      <point x="132" y="32"/>
      <point x="122" y="60"/>
    </contour>
  </outline>
</glyph>
<glyph name="quotedblleft" format="1">
  <advance width="1034"/>
  <unicode hex="201C"/>
  <outline>
    <contour>
      <point x="919" y="833" type="curve" smooth="yes"/>
      <point x="920" y="713"/>
      <point x="833" y="651"/>
      <point x="717" y="651" type="curve" smooth="yes"/>
      <point x="537" y="651"/>
      <point x="474" y="763"/>
      <point x="474" y="917" type="curve" smooth="yes"/>
      <point x="474" y="1081"/>
      <point x="594" y="1267"/>
      <point x="868" y="1306" type="curve"/>
      <point x="912" y="1188" type="line"/>
      <point x="796" y="1150"/>
      <point x="747" y="1071"/>
      <point x="747" y="1009" type="curve" smooth="yes"/>
      <point x="747" y="952"/>
      <point x="786" y="919"/>
      <point x="834" y="919" type="curve" smooth="yes"/>
      <point x="851" y="919"/>
      <point x="870" y="923"/>
      <point x="888" y="932" type="curve"/>
      <point x="909" y="897"/>
      <point x="919" y="869"/>
    </contour>
    <contour>
      <point x="435" y="833" type="curve" smooth="yes"/>
      <point x="436" y="713"/>
      <point x="349" y="651"/>
      <point x="233" y="651" type="curve" smooth="yes"/>
      <point x="53" y="651"/>
      <point x="-10" y="763"/>
      <point x="-10" y="917" type="curve" smooth="yes"/>
      <point x="-10" y="1081"/>
      <point x="110" y="1267"/>
      <point x="384" y="1306" type="curve"/>
      <point x="428" y="1188" type="line"/>
      <point x="312" y="1150"/>
      <point x="263" y="1071"/>
      <point x="263" y="1009" type="curve" smooth="yes"/>
      <point x="263" y="952"/>
      <point x="302" y="919"/>
      <point x="350" y="919" type="curve" smooth="yes"/>
      <point x="367" y="919"/>
      <point x="386" y="923"/>
      <point x="404" y="932" type="curve"/>
      <point x="425" y="897"/>
      <point x="435" y="869"/>
    </contour>
  </outline>
</glyph>
<glyph name="quotedblright" format="1">
  <advance width="1034"/>
  <unicode hex="201D"/>
  <outline>
    <contour>
      <point x="599" y="1124" type="curve" smooth="yes"/>
      <point x="598" y="1244"/>
      <point x="685" y="1306"/>
      <point x="801" y="1306" type="curve" smooth="yes"/>
      <point x="981" y="1306"/>
      <point x="1044" y="1194"/>
      <point x="1044" y="1040" type="curve" smooth="yes"/>
      <point x="1044" y="876"/>
      <point x="924" y="690"/>
      <point x="650" y="651" type="curve"/>
      <point x="606" y="769" type="line"/>
      <point x="722" y="807"/>
      <point x="771" y="886"/>
      <point x="771" y="948" type="curve" smooth="yes"/>
      <point x="771" y="1005"/>
      <point x="732" y="1038"/>
      <point x="684" y="1038" type="curve" smooth="yes"/>
      <point x="667" y="1038"/>
      <point x="648" y="1034"/>
      <point x="630" y="1025" type="curve"/>
      <point x="609" y="1060"/>
      <point x="599" y="1088"/>
    </contour>
    <contour>
      <point x="115" y="1124" type="curve" smooth="yes"/>
      <point x="114" y="1244"/>
      <point x="201" y="1306"/>
      <point x="317" y="1306" type="curve" smooth="yes"/>
      <point x="497" y="1306"/>
      <point x="560" y="1194"/>
      <point x="560" y="1040" type="curve" smooth="yes"/>
      <point x="560" y="876"/>
      <point x="440" y="690"/>
      <point x="166" y="651" type="curve"/>
      <point x="122" y="769" type="line"/>
      <point x="238" y="807"/>
      <point x="287" y="886"/>
      <point x="287" y="948" type="curve" smooth="yes"/>
      <point x="287" y="1005"/>
      <point x="248" y="1038"/>
      <point x="200" y="1038" type="curve" smooth="yes"/>
      <point x="183" y="1038"/>
      <point x="164" y="1034"/>
      <point x="146" y="1025" type="curve"/>
      <point x="125" y="1060"/>
      <point x="115" y="1088"/>
    </contour>
  </outline>
</glyph>
<glyph name="daggerdbl" format="1">
  <advance width="908"/>
  <unicode hex="2021"/>
  <outline>
    <contour>
      <point x="55" y="666" type="line"/>
      <point x="59" y="862" type="line"/>
      <point x="353" y="856" type="line"/>
      <point x="345" y="1255" type="line"/>
      <point x="559" y="1244" type="line"/>
      <point x="544" y="856" type="line"/>
      <point x="848" y="862" type="line"/>
      <point x="843" y="660" type="line"/>
      <point x="544" y="669" type="line"/>
      <point x="533" y="430" type="line"/>
      <point x="537" y="212" type="line"/>
      <point x="855" y="217" type="line"/>
      <point x="848" y="19" type="line"/>
      <point x="537" y="26" type="line"/>
      <point x="551" y="-362" type="line"/>
      <point x="336" y="-351" type="line"/>
      <point x="346" y="26" type="line"/>
      <point x="56" y="19" type="line"/>
      <point x="67" y="224" type="line"/>
      <point x="346" y="210" type="line"/>
      <point x="356" y="497" type="line"/>
      <point x="353" y="674" type="line"/>
    </contour>
  </outline>
</glyph>
<glyph name="guilsinglleft" format="1">
  <advance width="457"/>
  <unicode hex="2039"/>
  <outline>
    <contour>
      <point x="49" y="447" type="line"/>
      <point x="52" y="469" type="line"/>
      <point x="319" y="818" type="line"/>
      <point x="393" y="712" type="line"/>
      <point x="278" y="460" type="line"/>
      <point x="406" y="192" type="line"/>
      <point x="312" y="75" type="line"/>
    </contour>
  </outline>
</glyph>
<glyph name="guilsinglright" format="1">
  <advance width="457"/>
  <unicode hex="203A"/>
  <outline>
    <contour>
      <point x="360" y="447" type="line"/>
      <point x="357" y="469" type="line"/>
      <point x="90" y="818" type="line"/>
      <point x="16" y="712" type="line"/>
      <point x="131" y="460" type="line"/>
      <point x="3" y="192" type="line"/>
      <point x="97" y="75" type="line"/>
    </contour>
  </outline>
</glyph>
<glyph name="Germandbls.alt" format="1">
  <advance width="1669"/>
  <outline>
    <contour>
      <point x="43" y="1" type="line"/>
      <point x="56" y="137" type="line"/>
      <point x="210" y="213" type="line"/>
      <point x="210" y="729" type="line" smooth="yes"/>
      <point x="210" y="1106"/>
      <point x="617" y="1269"/>
      <point x="977" y="1269" type="curve" smooth="yes"/>
      <point x="1239" y="1269"/>
      <point x="1450" y="1227"/>
      <point x="1555" y="1187" type="curve"/>
      <point x="1535" y="1040" type="line"/>
      <point x="1188" y="797" type="line"/>
      <point x="1408" y="733"/>
      <point x="1620" y="660"/>
      <point x="1620" y="381" type="curve" smooth="yes"/>
      <point x="1620" y="68"/>
      <point x="1260" y="-23"/>
      <point x="1073" y="-23" type="curve" smooth="yes"/>
      <point x="843" y="-23"/>
      <point x="675" y="42"/>
      <point x="621" y="126" type="curve"/>
      <point x="655" y="488" type="line"/>
      <point x="832" y="459" type="line"/>
      <point x="874" y="272" type="line"/>
      <point x="916" y="212"/>
      <point x="1014" y="181"/>
      <point x="1099" y="181" type="curve" smooth="yes"/>
      <point x="1178" y="181"/>
      <point x="1226" y="228"/>
      <point x="1226" y="281" type="curve" smooth="yes"/>
      <point x="1226" y="446"/>
      <point x="938" y="582"/>
      <point x="758" y="630" type="curve"/>
      <point x="732" y="697" type="line"/>
      <point x="1078" y="1017" type="line"/>
      <point x="1078" y="1025" type="line"/>
      <point x="987" y="1058"/>
      <point x="905" y="1076"/>
      <point x="834" y="1076" type="curve" smooth="yes"/>
      <point x="671" y="1076"/>
      <point x="570" y="981"/>
      <point x="570" y="752" type="curve" smooth="yes"/>
      <point x="570" y="1" type="line"/>
    </contour>
  </outline>
</glyph>
